<?xml version="1.0" encoding="utf-8"?>
<!-- Generator: Adobe Illustrator 24.1.2, SVG Export Plug-In . SVG Version: 6.00 Build 0)  -->
<svg version="1.1" id="圖層_1" xmlns="http://www.w3.org/2000/svg" xmlns:xlink="http://www.w3.org/1999/xlink" x="0px" y="0px"
	 viewBox="0 0 500 500" style="enable-background:new 0 0 500 500;" xml:space="preserve">
<style type="text/css">
	.st0{fill:#C62828;}
</style>
<path class="st0" d="M421.8,78.2C375.9,32.3,314.9,7,250,7S124.1,32.3,78.2,78.2S7,185.1,7,250s25.3,125.9,71.2,171.8
	S185.1,493,250,493s125.9-25.3,171.8-71.2S493,314.9,493,250S467.7,124.1,421.8,78.2z M250,453c-111.9,0-203-91.1-203-203
	S138.1,47,250,47c64.1,0,121.4,29.9,158.7,76.5L229.8,333l-87.2-92.7c-7.6-8-20.2-8.4-28.3-0.9c-8,7.6-8.4,20.2-0.9,28.3l102.5,109
	c3.8,4,9.1,6.3,14.6,6.3c0.2,0,0.3,0,0.5,0c5.7-0.1,11-2.7,14.7-7l185.6-217.3c13.9,27.5,21.7,58.5,21.7,91.3
	C453,361.9,361.9,453,250,453z"/>
</svg>
