<?xml version="1.0" encoding="utf-8"?>
<!-- Generator: Adobe Illustrator 24.1.2, SVG Export Plug-In . SVG Version: 6.00 Build 0)  -->
<svg version="1.1" id="圖層_1" xmlns="http://www.w3.org/2000/svg" xmlns:xlink="http://www.w3.org/1999/xlink" x="0px" y="0px"
	 viewBox="0 0 500 500" style="enable-background:new 0 0 500 500;" xml:space="preserve">
<style type="text/css">
	.st0{fill:#C62828;}
</style>
<g>
	<path class="st0" d="M421.8,78.2C375.9,32.3,314.9,7,250,7C185.1,7,124.1,32.3,78.2,78.2S7,185.1,7,250
		c0,64.9,25.3,125.9,71.2,171.8C124.1,467.7,185.1,493,250,493c64.9,0,125.9-25.3,171.8-71.2C467.7,375.9,493,314.9,493,250
		C493,185.1,467.7,124.1,421.8,78.2z M250,453c-111.9,0-203-91.1-203-203S138.1,47,250,47s203,91.1,203,203S361.9,453,250,453z"/>
	<path class="st0" d="M373.6,127.2c-7.8-7.8-20.4-7.9-28.3-0.1l-94.7,94.1l-94.1-94.7c-7.8-7.8-20.4-7.9-28.3-0.1
		c-7.8,7.8-7.9,20.4-0.1,28.3l94.1,94.7l-94.7,94.1c-7.8,7.8-7.9,20.4-0.1,28.3c3.9,3.9,9,5.9,14.2,5.9c5.1,0,10.2-1.9,14.1-5.8
		l94.7-94.1l94.1,94.7c3.9,3.9,9,5.9,14.2,5.9c5.1,0,10.2-1.9,14.1-5.8c7.8-7.8,7.9-20.4,0.1-28.3l-94.1-94.7l94.7-94.1
		C381.3,147.7,381.4,135.1,373.6,127.2z"/>
</g>
</svg>
