<?xml version="1.0" encoding="utf-8"?>
<!-- Generator: Adobe Illustrator 24.1.2, SVG Export Plug-In . SVG Version: 6.00 Build 0)  -->
<svg version="1.1" id="圖層_1" xmlns="http://www.w3.org/2000/svg" xmlns:xlink="http://www.w3.org/1999/xlink" x="0px" y="0px"
	 viewBox="0 0 500 500" style="enable-background:new 0 0 500 500;" xml:space="preserve">
<style type="text/css">
	.st0{fill:#FFFFFF;}
</style>
<path class="st0" d="M437.7,393L396,351.2c-1.3-1.3-2.6-2.4-4-3.4c22.4-31.4,34.4-68.8,34.4-108.1c0-49.9-19.4-96.8-54.7-132
	C336.5,72.4,289.6,53,239.7,53s-96.8,19.4-132,54.7C72.4,142.9,53,189.8,53,239.7s19.4,96.8,54.7,132c35.3,35.3,82.1,54.7,132,54.7
	c39.3,0,76.8-12.1,108.1-34.4c1,1.4,2.1,2.7,3.4,4l41.8,41.8c6.2,6.2,14.3,9.3,22.4,9.3s16.2-3.1,22.4-9.3
	C450.1,425.4,450.1,405.3,437.7,393z M239.7,384.2c-38.6,0-74.9-15-102.2-42.3s-42.3-63.6-42.3-102.2c0-38.6,15-74.9,42.3-102.2
	s63.6-42.3,102.2-42.3c38.6,0,74.9,15,102.2,42.3h0c27.3,27.3,42.3,63.6,42.3,102.2c0,38.6-15,74.9-42.3,102.2
	S278.3,384.2,239.7,384.2z"/>
</svg>
