<?xml version="1.0" encoding="utf-8"?>
<!-- Generator: Adobe Illustrator 22.1.0, SVG Export Plug-In . SVG Version: 6.00 Build 0)  -->
<svg version="1.1" id="圖層_1" xmlns="http://www.w3.org/2000/svg" xmlns:xlink="http://www.w3.org/1999/xlink" x="0px" y="0px"
	 viewBox="0 0 500 500" style="enable-background:new 0 0 500 500;" xml:space="preserve">
<style type="text/css">
	.st0{fill:#FFFFFF;}
</style>
<g>
	<path class="st0" d="M430.2,91.4L379,30.7c-4.6-5.4-11.2-8.5-18.3-8.5H108.3C84,22.2,64.2,42,64.2,66.3v360
		c0,24.4,19.8,44.2,44.2,44.2h283.3c24.4,0,44.2-19.8,44.2-44.2V106.8C435.8,101.2,433.8,95.7,430.2,91.4z M408.8,104.8h-46.3V49.9
		L408.8,104.8z M391.7,445.5H108.3c-10.6,0-19.2-8.6-19.2-19.2v-360c0-10.6,8.6-19.2,19.2-19.2h229.2v65.2c0,9.6,7.9,17.5,17.5,17.5
		h55.8v296.5C410.8,436.9,402.2,445.5,391.7,445.5z"/>
	<path class="st0" d="M258.8,149.8c-4.9-4.9-12.8-4.9-17.7,0l-70.7,70.7c-4.9,4.9-4.9,12.8,0,17.7c4.9,4.9,12.8,4.9,17.7,0
		l49.3-49.3v162.4c0,6.9,5.6,12.5,12.5,12.5s12.5-5.6,12.5-12.5V188.8l49.3,49.3c2.4,2.4,5.6,3.7,8.8,3.7s6.4-1.2,8.8-3.7
		c4.9-4.9,4.9-12.8,0-17.7L258.8,149.8z"/>
</g>
</svg>
