<?xml version="1.0" encoding="utf-8"?>
<!-- Generator: Adobe Illustrator 25.2.3, SVG Export Plug-In . SVG Version: 6.00 Build 0)  -->
<svg version="1.1" id="圖層_4" xmlns="http://www.w3.org/2000/svg" xmlns:xlink="http://www.w3.org/1999/xlink" x="0px" y="0px"
	 viewBox="0 0 561.1 549.5" style="enable-background:new 0 0 561.1 549.5;" xml:space="preserve">
<style type="text/css">
	.st0{opacity:0.5;}
	.st1{fill:#FFFFFF;}
</style>
<g>
	<g>
		<path class="st0" d="M401.3,539.5c-0.2,0-0.3,0-0.5,0c-3-0.2-5.9-1.7-7.6-4.2l-34.4-48.1c-21.1-29.6-31.5-32.8-55.7-34.4
			c-39.9-2.7-74.7-15.3-103.3-37.5c-23.1-17.9-36.1-37.5-41.6-45.9c-0.8-1.2-1.5-2.3-2-2.9c-5.9-8.3-15.8-22.2-28.7-22.2
			c-1.9,0-4,0.3-6,0.9c-8.5,2.5-16,3.7-22.8,3.7c-16.2,0-29-6.9-39.2-21.1c-8.2-11.6-11.3-24.1-9-36.2c2.9-14.8,13.7-28.2,32.2-39.8
			c10-6.3,21.4-9.4,33.9-9.4c5.1,0,10,0.5,14.7,1.4L19,86.4c-7.5-10.5-10.5-23.3-8.3-36.1c2.1-12.7,9.1-23.9,19.6-31.4
			c8.2-5.9,17.9-9,28.1-9c15.6,0,30.3,7.6,39.4,20.3L141,90.7c3.1-9.3,9.1-17.8,17.7-24c8.2-5.9,17.9-9,28.1-9
			c9.5,0,18.7,2.8,26.5,7.9c2.8-10.6,9.2-20.3,18.6-27.1c8.2-5.9,17.9-9,28.1-9c13.1,0,25.6,5.3,34.6,14.5c3.1-9.9,9.4-18.5,18-24.6
			c8.2-5.9,18-9,28.1-9c15.6,0,30.3,7.6,39.4,20.3L486,179.1c21.9,30.7,22.1,55,22.3,78.5c0.1,7.6,0.1,15.5,0.9,23.6
			c3,31.5,16,49.7,26.5,64.4l13.9,19.4c2.7,3.8,2.4,8.9-0.6,12.4L408.8,536.1C406.9,538.2,404.2,539.5,401.3,539.5z"/>
		<path class="st1" d="M58.3,20c12,0,23.8,5.6,31.2,16.1l65.9,92.4c-12.3-17.2-8.3-41.2,8.9-53.5l0,0c6.8-4.8,14.5-7.1,22.2-7.1
			c12,0,23.8,5.6,31.2,16.1l6.9,9.6c-7.2-16.3-2.3-36,12.8-46.7c6.8-4.8,14.5-7.1,22.2-7.1c12,0,23.8,5.6,31.2,16.1L309,81.4
			c-12.3-17.2-8.3-41.2,8.9-53.5l0,0c6.8-4.8,14.5-7.1,22.2-7.1c12,0,23.8,5.6,31.2,16.1l39.1,54.8c0,0,40,56.1,66.8,93.6
			c26.8,37.6,18.1,63.1,21.3,97.3c3.3,34.2,17.4,54,28.3,69.2c10.9,15.3,13.9,19.4,13.9,19.4L401.3,529.5l-34.4-48.1
			c-22.3-31.2-34.8-36.7-63.1-38.6c-96.1-6.5-131.7-71.4-139.4-82.2c-6.7-9.4-18.8-26.4-36.9-26.4c-2.8,0-5.8,0.4-8.9,1.3
			c-7.4,2.2-14,3.3-20,3.3c-12.7,0-22.7-5.2-31-16.9c-12.3-17.2-13.4-40.4,20.4-61.7c9.2-5.8,19.1-7.9,28.5-7.9
			c17,0,32.7,6.8,41.1,11.2L27.1,80.6C14.8,63.4,18.8,39.4,36,27.1l0,0C42.8,22.3,50.6,20,58.3,20 M58.3,0v20V0
			C46.1,0,34.4,3.8,24.4,10.9C-1.8,29.5-7.9,66.1,10.8,92.2L111,232.5c-12.2,0.8-23.5,4.5-33.6,10.8c-20.8,13.1-33.2,28.7-36.7,46.3
			c-2.9,14.9,0.7,30.1,10.6,43.9c12,16.8,27.9,25.3,47.3,25.3c7.8,0,16.2-1.4,25.7-4.2c1.2-0.3,2.2-0.5,3.2-0.5
			c7.8,0,16.1,11.7,20.6,18c0.4,0.5,1,1.5,1.8,2.6c5.8,8.8,19.4,29.4,43.8,48.3c30.2,23.4,66.8,36.8,108.8,39.6
			c21.2,1.4,28.9,3.2,48.2,30.3l34.4,48.1c3.5,5,9.2,8,15.3,8.4c0.3,0,0.7,0,1,0c5.7,0,11.2-2.5,15-6.8l139.8-158.5
			c6.2-7,6.7-17.3,1.3-24.8l-13.9-19.4c-10.3-14.4-21.9-30.7-24.6-59.5c-0.7-7.7-0.8-15-0.9-22.8c-0.2-23.9-0.4-51-24.1-84.2
			l-67-93.6L387.9,25C377,9.7,359.2,0.6,340.4,0.6c-12.2,0-23.9,3.8-33.9,10.9c-6.5,4.6-11.9,10.4-15.9,17
			c-9.1-5.7-19.8-8.8-30.8-8.8c-12.2,0-23.9,3.8-33.9,10.9c-7.7,5.5-14,12.9-18.2,21.3c-6.6-2.6-13.8-3.9-21.1-3.9
			c-12.2,0-23.9,3.8-33.9,10.9c-5.2,3.7-9.6,8.2-13.2,13.1l-33.7-47.3C94.9,9.1,77.1,0,58.3,0L58.3,0z"/>
	</g>
	<path class="st1" d="M316.4,25.3C304.2,34,298.2,48.1,299.2,62l-5.7-8c-13.2-18.6-39.1-22.9-57.7-9.6c-11.8,8.4-17.8,22-17.3,35.5
		c-13.7-16.6-38.1-20-55.9-7.3c-12.2,8.7-18.2,22.8-17.2,36.7L92,34.3c-13.2-18.6-39.1-22.9-57.7-9.6s-22.9,39.1-9.6,57.7L147.9,255
		c-13.9-5.8-38.2-11.9-61.5,2.7c-16.7,10.5-26.5,22.4-29,35.2c-2,10.2,0.7,20.8,7.8,30.8c12.5,17.6,29.3,22.1,54.3,14.7
		c21-6.2,34.9,13.4,42.5,23.9c0.5,0.7,1.2,1.8,2.1,3.1c5.8,8.8,17.9,27.1,40.1,44.3c27.5,21.3,61,33.5,99.5,36.1
		c27.9,1.9,39.2,7,60.9,37.3l36.6,51.3c0.5,0.8,1.4,1.2,2.3,1.3c0.7,0,1.3-0.2,1.9-0.6c0.2-0.1,0.4-0.3,0.5-0.5L543.4,373
		c0.9-1,1-2.6,0.2-3.7l-13.9-19.4c-10.9-15.3-24.5-34.4-27.7-67.8c-0.8-8.5-0.9-16.5-0.9-24.3c-0.2-23.4-0.3-45.6-21-74.5
		l-66.8-93.6l-39.1-54.8C360.9,16.3,335,12,316.4,25.3z M475.1,186.8c19.5,27.3,19.7,47.6,19.8,71c0.1,7.9,0.1,16,1,24.8
		c3.3,35,18.1,55.6,28.8,70.7l12.5,17.5L403.8,527.7l-34.4-48.1c-22.7-31.8-36.2-37.9-65.4-39.8c-58.1-3.9-103.5-30.1-135-77.7
		c-0.9-1.4-1.6-2.5-2.2-3.3c-7.8-10.9-24-33.6-49-26.2c-22.8,6.7-36.6,3.1-47.7-12.4c-4.3-6-8.9-15.4-6.8-26.1
		c2.2-11.2,11.1-21.7,26.3-31.3c29.3-18.4,60.8-0.4,65.8,2.7l3.9,5.5c0.2,0.3,23.9,32.2,27.5,38.5c8.5,15,10.3,19.7,12.2,31.4
		c2,12.5,12.4,29.9,12.8,30.7c0.9,1.4,2.7,1.9,4.1,1c0.1,0,0.1-0.1,0.2-0.1c1.3-0.9,1.6-2.6,0.8-4c-0.1-0.2-10.3-17.1-12.1-28.5
		c-2-12.5-4-17.8-12.9-33.4c-3.8-6.7-27-37.8-27.9-39.1l-3.5-4.9c-0.2-0.5-0.5-1-1-1.4L29.6,78.9C18.3,63,22,40.9,37.8,29.6
		s38-7.6,49.3,8.2l65.9,92.4l72.7,101.9c1,1.3,2.8,1.7,4.2,0.7s1.7-2.8,0.7-4.2l-72.7-101.9c-11.3-15.9-7.6-38,8.2-49.3
		s38-7.6,49.3,8.2l6.7,9.4c1.1,2.4,2.4,4.7,4,7l61.4,86c1,1.3,2.8,1.7,4.2,0.7c0.1-0.1,0.2-0.2,0.3-0.3c0.1-0.1,0.2-0.1,0.3-0.2
		c1.3-1,1.7-2.8,0.7-4.2l-65.7-92c-6.5-15-1.9-33,11.9-42.8c15.9-11.3,38-7.6,49.3,8.2l18.2,25.5l43.2,60.5c1,1.3,2.8,1.7,4.2,0.7
		c1.3-1,1.7-2.8,0.7-4.2l-43.2-60.5c-11.3-15.9-7.6-38,8.2-49.3c15.9-11.3,38-7.6,49.3,8.2l39.1,54.8L475.1,186.8z"/>
</g>
</svg>
