<?xml version="1.0" encoding="utf-8"?>
<!-- Generator: Adobe Illustrator 26.0.1, SVG Export Plug-In . SVG Version: 6.00 Build 0)  -->
<svg version="1.1" id="圖層_1" xmlns="http://www.w3.org/2000/svg" xmlns:xlink="http://www.w3.org/1999/xlink" x="0px" y="0px"
	 viewBox="0 0 50 50" style="enable-background:new 0 0 50 50;" xml:space="preserve">
<style type="text/css">
	.st0{fill:#FF2D2D;}
</style>
<g>
	<path class="st0" d="M11.3,29.6c-0.8,0-1.4,0.6-1.4,1.4v7.6c0,0.8,0.6,1.4,1.4,1.4s1.4-0.6,1.4-1.4V31
		C12.7,30.2,12.1,29.6,11.3,29.6z"/>
	<path class="st0" d="M16.3,19.1h-3.4c-0.1,0-0.3-0.1-0.3-0.2l-1-3.2c-0.1-0.3-0.5-0.3-0.6,0l-1,3.2c0,0.1-0.2,0.2-0.3,0.2H6.3
		c-0.3,0-0.4,0.4-0.2,0.6l2.7,2c0.1,0.1,0.2,0.2,0.1,0.4l-1,3.2c-0.1,0.3,0.2,0.5,0.5,0.4l2.7-2c0.1-0.1,0.3-0.1,0.4,0l2.7,2
		c0.3,0.2,0.6-0.1,0.5-0.4l-1-3.2c0-0.1,0-0.3,0.1-0.4l2.7-2C16.8,19.5,16.6,19.1,16.3,19.1z"/>
	<path class="st0" d="M25,19.5c-0.8,0-1.4,0.6-1.4,1.4v23.5c0,0.8,0.6,1.4,1.4,1.4s1.4-0.6,1.4-1.4V20.9
		C26.4,20.1,25.8,19.5,25,19.5z"/>
	<path class="st0" d="M31.6,8.5h-4.4c-0.2,0-0.4-0.1-0.4-0.3L25.4,4c-0.1-0.4-0.7-0.4-0.8,0l-1.4,4.2c-0.1,0.2-0.2,0.3-0.4,0.3h-4.4
		c-0.4,0-0.6,0.5-0.3,0.8l3.6,2.6c0.2,0.1,0.2,0.3,0.2,0.5l-1.4,4.2c-0.1,0.4,0.3,0.7,0.7,0.5l3.6-2.6c0.2-0.1,0.4-0.1,0.5,0
		l3.6,2.6c0.3,0.2,0.8-0.1,0.7-0.5l-1.4-4.2c-0.1-0.2,0-0.4,0.2-0.5L32,9.3C32.2,9,32,8.5,31.6,8.5z"/>
	<path class="st0" d="M38.7,29.6c-0.8,0-1.4,0.6-1.4,1.4v7.6c0,0.8,0.6,1.4,1.4,1.4s1.4-0.6,1.4-1.4V31
		C40.1,30.2,39.5,29.6,38.7,29.6z"/>
	<path class="st0" d="M43.9,19.6c0.3-0.2,0.1-0.6-0.2-0.6h-3.4c-0.1,0-0.3-0.1-0.3-0.2l-1-3.2c-0.1-0.3-0.5-0.3-0.6,0l-1,3.2
		c0,0.1-0.2,0.2-0.3,0.2h-3.4c-0.3,0-0.4,0.4-0.2,0.6l2.7,2c0.1,0.1,0.2,0.2,0.1,0.4l-1,3.2c-0.1,0.3,0.2,0.5,0.5,0.4l2.7-2
		c0.1-0.1,0.3-0.1,0.4,0l2.7,2c0.3,0.2,0.6-0.1,0.5-0.4l-1-3.2c0-0.1,0-0.3,0.1-0.4L43.9,19.6z"/>
</g>
</svg>
