<?xml version="1.0" encoding="utf-8"?>
<!-- Generator: Adobe Illustrator 24.0.2, SVG Export Plug-In . SVG Version: 6.00 Build 0)  -->
<svg version="1.1" id="圖層_1" xmlns="http://www.w3.org/2000/svg" xmlns:xlink="http://www.w3.org/1999/xlink" x="0px" y="0px"
	 viewBox="0 0 30 180" style="enable-background:new 0 0 30 180;" xml:space="preserve">
<style type="text/css">
	.st0{fill:url(#_xEB14__1_);}
	.st1{fill:none;}
	.st2{fill:url(#Shape_3_);}
	.st3{fill:url(#Shape_4_);}
	.st4{fill:url(#Path-3_1_);}
	.st5{fill:url(#Shape_5_);}
	.st6{fill:url(#SVGID_1_);}
	.st7{fill:url(#SVGID_2_);}
	.st8{fill:url(#SVGID_3_);}
</style>
<g id="圖層_1_1_">
	<title>icon-sideTab</title>
	<g id="icon-fav">
		
			<linearGradient id="_xEB14__1_" gradientUnits="userSpaceOnUse" x1="-2704.3354" y1="504.9597" x2="-2703.6965" y2="504.3107" gradientTransform="matrix(22.207 0 0 -21.1702 60062.0781 10698.6504)">
			<stop  offset="0" style="stop-color:#E6D7B8"/>
			<stop  offset="0.4392" style="stop-color:#F0E2C8"/>
			<stop  offset="0.5169" style="stop-color:#CFB991"/>
			<stop  offset="1" style="stop-color:#F2DEBB"/>
		</linearGradient>
		<path id="_xEB14_" class="st0" d="M22.1,24.4l-1.6-7l0,0l5.4-4.7c0.3-0.2,0.3-0.6,0.1-0.9c-0.1-0.1-0.3-0.2-0.4-0.2L18.4,11l0,0
			l-2.8-6.6C15.4,4,15.1,3.9,14.8,4c-0.1,0.1-0.3,0.2-0.3,0.3l-2.8,6.6l0,0l-7.2,0.6c-0.3,0-0.6,0.3-0.6,0.7c0,0.2,0.1,0.3,0.2,0.4
			l5.4,4.7l0,0l-1.6,7C7.8,24.7,8,25,8.4,25.1c0.2,0,0.3,0,0.5-0.1l6.2-3.7l0,0l6.2,3.7c0.3,0.2,0.7,0.1,0.9-0.2
			C22.1,24.7,22.1,24.5,22.1,24.4z"/>
		<rect id="Rectangle" class="st1" width="30" height="30"/>
	</g>
	<g id="icon-rb" transform="translate(0.000000, 30.000000)">
		<rect id="Rectangle_1_" class="st1" width="30" height="30"/>
		
			<linearGradient id="Shape_3_" gradientUnits="userSpaceOnUse" x1="-2690.1377" y1="479.745" x2="-2689.6582" y2="479.0268" gradientTransform="matrix(20 0 0 -23.0848 53813 11081.1123)">
			<stop  offset="0" style="stop-color:#E6D7B8"/>
			<stop  offset="0.4392" style="stop-color:#F0E2C8"/>
			<stop  offset="0.5169" style="stop-color:#CFB991"/>
			<stop  offset="1" style="stop-color:#F2DEBB"/>
		</linearGradient>
		<path id="Shape" class="st2" d="M24.8,9l-9.4,5.6c-0.1,0.1-0.2,0.2-0.2,0.3V26c0.3,0,0.6-0.1,0.8-0.3l7.8-4.7c0.6-0.4,1-1.1,1-1.8
			V9.9C25,9.6,24.9,9.3,24.8,9z M5.2,9l9.4,5.6c0.1,0.1,0.2,0.2,0.2,0.3l0,0V26c-0.3,0-0.6-0.1-0.8-0.3l0,0l-8-4.6
			c-0.6-0.4-1-1.1-1-1.8l0,0V9.9C5,9.6,5.1,9.3,5.2,9L5.2,9z M12.4,20.7c-0.5-0.3-1-0.1-1,0.4s0.4,1.2,1,1.5c0.5,0.3,1,0.1,1-0.4
			S12.9,21,12.4,20.7z M6.9,17.7c-0.5-0.3-1-0.1-1,0.4s0.4,1.2,1,1.5c0.5,0.3,1,0.1,1-0.4S7.4,18,6.9,17.7z M21.7,16.6
			c0,0.9-0.7,2-1.6,2.4c-0.9,0.5-1.6,0.2-1.6-0.7c0-0.9,0.7-2,1.6-2.4C21,15.4,21.7,15.7,21.7,16.6z M12.4,15.2
			c-0.5-0.3-1-0.1-1,0.4c0,0.5,0.4,1.2,1,1.5c0.5,0.3,1,0.1,1-0.4C13.4,16.2,12.9,15.5,12.4,15.2z M6.9,12.2c-0.5-0.3-1-0.1-1,0.4
			s0.4,1.2,1,1.5c0.5,0.3,1,0.1,1-0.4S7.4,12.5,6.9,12.2z M15,3c0.4,0,0.8,0.1,1.1,0.3l0,0L24,8c0.2,0.1,0.4,0.3,0.6,0.5l0,0
			l-9.4,5.6c-0.1,0.1-0.3,0.1-0.4,0l0,0L5.4,8.6C5.6,8.3,5.8,8.2,6,8l0,0l7.8-4.7C14.2,3.1,14.6,3,15,3z M21.2,7.7
			c-0.5-0.4-1.3-0.4-1.8,0c-0.5,0.3-0.5,0.9,0,1.3c0.5,0.4,1.3,0.4,1.8,0C21.6,8.6,21.6,8.1,21.2,7.7z M15.8,7.7
			c-0.5-0.3-1.2-0.4-1.7,0c-0.5,0.3-0.5,0.9,0,1.2s1.2,0.4,1.7,0C16.3,8.6,16.3,8,15.8,7.7z M10.6,7.6c-0.5-0.4-1.3-0.4-1.8,0
			c-0.5,0.3-0.5,0.9,0,1.3s1.3,0.4,1.8,0S11.1,8,10.6,7.6z"/>
	</g>
	<g id="icon-cg" transform="translate(0.000000, 60.000000)">
		<rect id="Rectangle_2_" class="st1" width="30" height="30"/>
		
			<linearGradient id="Shape_4_" gradientUnits="userSpaceOnUse" x1="-2690.1946" y1="445.0487" x2="-2689.6248" y2="444.3306" gradientTransform="matrix(20 0 0 -21.1789 53814 9432.8291)">
			<stop  offset="0" style="stop-color:#E6D7B8"/>
			<stop  offset="0.4392" style="stop-color:#F0E2C8"/>
			<stop  offset="0.5169" style="stop-color:#CFB991"/>
			<stop  offset="1" style="stop-color:#F2DEBB"/>
		</linearGradient>
		<path id="Shape_1_" class="st3" d="M18.8,21.3v-16c0-0.7-0.6-1.3-1.3-1.3H7.3C6.6,4,6,4.6,6,5.3v16c0,0.7,0.6,1.3,1.3,1.3h10.3
			C18.3,22.5,18.8,22,18.8,21.3z M9.3,7.3c0,0.1-0.1,0.2-0.2,0.3c0,0-0.1,0-0.1,0.1c-0.1,0-0.4,0-0.5-0.2c0,0.3,0.1,0.5,0.1,0.7H8.1
			c0-0.1,0.1-0.2,0.1-0.4V7.7c0-0.1,0-0.2,0-0.3c0,0.2-0.1,0.2-0.1,0.2c-0.2,0-0.3,0-0.5-0.1C7.4,7.3,7.4,7,7.6,6.7l0,0
			c0,0,0-0.1,0.1-0.1C7.8,6.5,7.9,6.4,8,6.3c0.2-0.2,0.4-0.4,0.4-0.5l0,0l0,0c0,0,0,0,0,0.1C8.5,6,8.9,6.3,9.1,6.6l0,0l0,0
			C9.3,6.8,9.3,7.1,9.3,7.3z M14.4,14.7c-0.3,0.2-0.7,0.3-1.1,0.3c-0.3,0-0.5-0.2-0.7-0.3c0,0.1,0,0.3,0,0.4c0,0.3,0.1,0.5,0.1,0.8
			c0.1,0.3,0.1,0.5,0.2,0.8l0,0h-1.2l0,0c0.1-0.2,0.2-0.5,0.2-0.8c0.1-0.3,0.1-0.5,0.1-0.8c0-0.1,0-0.3,0-0.4
			c-0.2,0.2-0.4,0.3-0.7,0.3c-0.4,0.1-0.8,0-1.1-0.3c0,0,0,0-0.1-0.1c-0.6-0.6-0.4-1.4,0-2.1c0-0.1,0.1-0.1,0.1-0.2
			c0.1-0.2,0.3-0.4,0.5-0.6c0.2-0.3,0.5-0.5,0.7-0.8c0.3-0.3,0.5-0.6,0.7-0.9c0,0,0,0,0-0.1l0,0l0,0l0,0l0,0c0,0,0,0,0,0.1
			c0.2,0.4,0.8,1.1,1.4,1.7c0.2,0.2,0.3,0.4,0.5,0.6c0.1,0.1,0.1,0.1,0.1,0.2C15,13.2,15.1,14.1,14.4,14.7z M19.5,5.6l5.7,2.1
			c0.7,0.2,1,1,0.8,1.6l0,0l-5.5,15.1c-0.2,0.7-1,1-1.6,0.8l0,0l-5.3-1.9h4c1,0,1.9-0.8,1.9-1.9l0,0L19.5,5.6z M16.5,18.8L16.5,18.8
			c0,0.1,0.1,0.1,0.1,0.2l0,0c0.1,0.1,0.2,0.2,0.3,0.3l0,0c0.1,0.1,0.1,0.1,0.2,0.2s0.1,0.1,0.1,0.2c0.2,0.3,0.3,0.7,0,0.9
			c-0.1,0.1-0.4,0.1-0.6,0.1c0,0-0.1,0-0.1-0.1v0.1v0.1c0,0.2,0.1,0.4,0.1,0.5h-0.5c0,0,0,0,0-0.1c0.1-0.2,0.1-0.4,0.1-0.7
			c-0.1,0.1-0.1,0.1-0.2,0.1s-0.1,0-0.2,0l0,0c-0.1,0-0.2,0-0.2-0.1c-0.1-0.1-0.2-0.3-0.2-0.4l0,0c0-0.2,0.1-0.3,0.2-0.5
			C16,19.4,16.3,19.1,16.5,18.8C16.4,18.8,16.5,18.8,16.5,18.8z M22.9,8.7c-0.2-0.1-0.4-0.2-0.6-0.1c-0.4,0.1-0.5,0.5-0.5,1
			c0,0.1,0,0.1,0.1,0.2c0.1,0.3,0.2,0.6,0.4,0.9c0.1,0.1,0.1,0.2,0.1,0.3s0,0.1,0,0.1l0,0l0,0l0,0l0,0c0.1-0.1,0.2-0.1,0.3-0.2
			c0.1,0,0.1-0.1,0.2-0.1l0,0l0,0c0.1,0,0.1-0.1,0.2-0.1c0.2-0.1,0.4-0.2,0.5-0.3s0.2-0.1,0.3-0.2c0,0,0,0,0-0.1
			c0.3-0.3,0.3-0.7,0.2-0.9c0-0.1-0.2-0.2-0.4-0.2c-0.1,0-0.1,0-0.2,0c-0.2,0-0.3,0.1-0.4,0.3V9.2C23.1,9,23,8.9,22.9,8.7z"/>
	</g>
	<g id="icon-sp" transform="translate(0.000000, 90.000000)">
		<rect id="Rectangle_3_" class="st1" width="30" height="30"/>
		
			<linearGradient id="Path-3_1_" gradientUnits="userSpaceOnUse" x1="-2713.855" y1="412.2404" x2="-2713.2163" y2="411.7303" gradientTransform="matrix(24 0 0 -20.2261 65139 8348.7129)">
			<stop  offset="0" style="stop-color:#E6D7B8"/>
			<stop  offset="0.4392" style="stop-color:#F0E2C8"/>
			<stop  offset="0.5169" style="stop-color:#CFB991"/>
			<stop  offset="1" style="stop-color:#F2DEBB"/>
		</linearGradient>
		<path id="Path-3" class="st4" d="M16.4,5C22.2,5,27,9.8,27,15.6c0,3.5-1.7,9.6-8.2,9.6c-1.6,0-3.1-0.4-4.2-1.1l0.1-0.1
			c0.3-0.3,0.5-0.7,0.5-1.1c0-0.2,0-0.3-0.1-0.5s-0.1-0.3-0.3-0.5c0,0,0-0.1,0-0.3c0-0.1,0-0.1,0-0.2c0-0.3,0.1-0.7,0.2-1.1
			c0-0.1,0.1-0.3,0.1-0.4c0.1-0.3,0.2-0.6,0.3-0.9c0.1-0.4,0.2-0.8,0.4-1.2c0.1-0.4,0.3-0.8,0.4-1.1c0.1-0.3,0.2-0.6,0.3-0.9
			c0.1-0.4,0.2-0.8,0.2-1.1c0-0.6-0.2-1.2-0.5-1.7c-0.2-0.3-0.4-0.6-0.6-0.8c-0.3-0.2-0.6-0.4-0.9-0.6c-0.2-0.1-0.4-0.2-0.7-0.3
			c-0.5-0.2-1.1-0.4-1.8-0.6c-1.5-0.5-3.9-1.3-4.4-1.5C9.7,6.7,12.8,5,16.4,5z M6.6,10.6c0.1-0.4,0.5-0.6,0.9-0.5
			c0,0,2.4,0.8,4.4,1.5c0.7,0.2,1.3,0.5,1.7,0.6c0.3,0.1,0.5,0.2,0.6,0.3c0.3,0.1,0.5,0.3,0.7,0.4c0.2,0.2,0.4,0.4,0.5,0.6
			c0.2,0.4,0.3,0.9,0.3,1.3c0,0.3-0.1,0.6-0.1,0.9c-0.1,0.2-0.2,0.5-0.3,0.8s-0.3,0.7-0.4,1.1c-0.2,0.4-0.3,0.9-0.5,1.4
			c-0.1,0.3-0.2,0.6-0.2,0.9c0,0.1-0.1,0.2-0.1,0.3c-0.1,0.4-0.2,0.9-0.2,1.2c0,0.1,0,0.2,0,0.3c0,0.2,0,0.3,0,0.4s0,0.2,0.1,0.2
			v0.1c0.3,0.3,0.3,0.7,0,1s-0.7,0.3-1,0c-0.1-0.1-0.2-0.3-0.3-0.4s-0.1-0.3-0.2-0.4c0-0.1-0.1-0.3-0.1-0.4h-0.1
			c-0.7-0.1-1.6-0.3-2.4-0.6c-0.3-0.1-0.7-0.2-1-0.3l0,0l-0.7,1.9l0,0c0,0,0,0.1-0.1,0.1l0,0c0,0,0,0-0.1,0c0,0,0,0-0.1,0.1l0,0H7.8
			l0,0l0,0H4.3c-0.1,0-0.3,0-0.4,0s-0.3-0.1-0.4-0.2c-0.1-0.1-0.2-0.2-0.2-0.3C3,22.8,3,22.6,3,22.5s0-0.3,0.1-0.4
			c0-0.2,0.1-0.3,0.2-0.5c0.6-1.3,1.6-3.6,1.9-4.2c0-0.1,0.1-0.1,0.1-0.1c0-0.1,0.1-0.1,0.1-0.1c0-0.1,0-0.1,0-0.2
			c0.1-0.2,0.4-0.3,0.6-0.2l0,0c0,0,0,0,0.1,0s0.2,0.1,0.3,0.1c0.2,0,0.6,0.1,1.1,0.3s1.2,0.4,1.8,0.6l0,0l1.9-4.9
			c-0.2-0.1-0.4-0.2-0.7-0.2c-1.4-0.5-2.8-0.9-3.3-1.1C7.1,11.5,7,11.5,7,11.5C6.6,11.4,6.4,10.9,6.6,10.6z M19,18.2
			c-0.8,0-1.6,0.4-2,1c-0.2,0.3-0.3,0.6-0.4,0.9c0,0.2-0.1,0.4-0.1,0.6c0,0.3,0.1,0.6,0.2,0.9s0.3,0.6,0.6,0.9
			c0.4,0.4,1.1,0.7,1.7,0.7c1.4,0,2.5-1.1,2.5-2.5C21.5,19.3,20.4,18.2,19,18.2z M5,19.9c-0.3,0.7-0.7,1.5-0.9,2
			C4,22,4,22.2,3.9,22.3c0,0.1,0,0.2,0,0.2l0,0l0,0H4c0.1,0,0.1,0,0.3,0l0,0h3.3L8.1,21c-0.2-0.1-0.5-0.2-0.7-0.2
			C6.3,20.4,5.4,20.1,5,19.9z M19,19.4c0.7,0,1.2,0.6,1.2,1.2c0,0.7-0.6,1.2-1.2,1.2c-0.7,0-1.2-0.6-1.2-1.2
			C17.7,20,18.3,19.4,19,19.4z M9.9,18.9l-0.6,1.5c0.3,0.1,0.6,0.2,0.9,0.3c0.8,0.2,1.6,0.4,2.3,0.5c0-0.2,0-0.5,0.1-0.7
			c0-0.3,0.1-0.6,0.2-0.8c-0.6-0.1-1.3-0.3-2.1-0.5C10.4,19.1,10.1,19,9.9,18.9L9.9,18.9z M6,17.6c-0.1,0.2-0.3,0.7-0.7,1.5
			c0,0,0,0,0.1,0c0.3,0.1,0.7,0.3,1.2,0.5s1.2,0.4,1.8,0.6l0,0L9,18.7c-0.2-0.1-0.5-0.2-0.7-0.2C7.3,18.1,6.4,17.8,6,17.6z
			 M12.1,13.2l-1.9,4.9c0.3,0.1,0.5,0.2,0.8,0.2c0.7,0.2,1.4,0.4,2.1,0.5c0.2-0.7,0.4-1.3,0.6-1.9c0.2-0.5,0.3-0.9,0.5-1.2
			c0.1-0.2,0.1-0.3,0.2-0.5c0-0.1,0.1-0.3,0.1-0.4c0-0.2,0-0.3-0.1-0.4c-0.1-0.1-0.1-0.2-0.3-0.4c-0.1-0.1-0.2-0.1-0.3-0.2
			c-0.1,0-0.3-0.1-0.5-0.2c-0.2-0.1-0.5-0.2-0.7-0.3C12.3,13.3,12.2,13.3,12.1,13.2L12.1,13.2z"/>
	</g>
	<g id="icon-eg" transform="translate(0.000000, 120.000000)">
		<rect id="Rectangle_4_" class="st1" width="30" height="30"/>
		
			<linearGradient id="Shape_5_" gradientUnits="userSpaceOnUse" x1="-2703.1106" y1="351.3142" x2="-2702.4717" y2="351.0508" gradientTransform="matrix(22 0 0 -13.3228 59476 4693.6733)">
			<stop  offset="0" style="stop-color:#E6D7B8"/>
			<stop  offset="0.441" style="stop-color:#F0E2C8"/>
			<stop  offset="0.5169" style="stop-color:#CFB991"/>
			<stop  offset="1" style="stop-color:#F2DEBB"/>
		</linearGradient>
		<path id="Shape_2_" class="st5" d="M25.9,17.5l-1.3-5.4C24,9.7,21.8,8,19.3,8h-8.6C8.2,8,6,9.7,5.3,12.1L4,17.5
			c-0.3,1.6,0.6,3.1,2.1,3.6h0.1c1.4,0.5,2.9-0.1,3.7-1.4l1.1-1.6c0.3-0.5,0.8-0.8,1.4-0.8h5.3c0.6,0,1.1,0.3,1.4,0.8l1.1,1.6
			c0.7,1.3,2.3,1.9,3.7,1.4H24C25.4,20.7,26.3,19.1,25.9,17.5z M12.2,13.9h-1.8v1.8H8.9v-1.8H7.1v-1.6h1.8v-1.8h1.6v1.8h1.8v1.6
			H12.2z M20.1,10.2c0.5,0,1,0.4,1,1c0,0.5-0.4,1-1,1c-0.5,0-1-0.4-1-1C19.1,10.6,19.6,10.2,20.1,10.2z M18.1,14.1c-0.5,0-1-0.4-1-1
			c0-0.5,0.4-1,1-1c0.5,0,1,0.4,1,1C19.1,13.7,18.7,14.1,18.1,14.1z M20.1,16.1c-0.5,0-1-0.4-1-1c0-0.5,0.4-1,1-1c0.5,0,1,0.4,1,1
			C21.1,15.6,20.6,16.1,20.1,16.1z M22.1,14.1c-0.5,0-1-0.4-1-1c0-0.5,0.4-1,1-1c0.5,0,1,0.4,1,1C23,13.7,22.6,14.1,22.1,14.1z"/>
	</g>
</g>
<g id="圖層_2_1_">
	<rect id="Rectangle_5_" y="150" class="st1" width="30" height="30"/>
	<g>
		
			<linearGradient id="SVGID_1_" gradientUnits="userSpaceOnUse" x1="4.937" y1="22.284" x2="24.7899" y2="13.0638" gradientTransform="matrix(1 0 0 -1 0 181)">
			<stop  offset="0" style="stop-color:#E6D7B8"/>
			<stop  offset="0.404" style="stop-color:#F0E2C8"/>
			<stop  offset="0.469" style="stop-color:#CFB991"/>
			<stop  offset="0.9661" style="stop-color:#F2DEBB"/>
		</linearGradient>
		<path class="st6" d="M18.3,153.2l-1.6,2.8c0.6,0.1,1.1,0.4,1.6,0.6l-2.3,4c-0.2-0.1-0.4-0.1-0.5-0.1v-3.1
			c-0.2,0.1-0.3,0.1-0.5,0.1s-0.3,0-0.5-0.1v3.1c-0.2,0-0.4,0.1-0.5,0.1l-2.3-4c0.5-0.3,1-0.5,1.6-0.6l-1.6-2.8
			c-4.3,1.4-7.4,5.4-7.4,10.2c0,5.9,4.8,10.7,10.7,10.7s10.7-4.8,10.7-10.7C25.7,158.6,22.6,154.6,18.3,153.2z M22.6,162.9h-4.5
			c0-0.2-0.1-0.4-0.2-0.6l3.9-2.3C22.3,160.9,22.5,161.9,22.6,162.9z M19.2,157c0.8,0.6,1.5,1.3,2.1,2.1l-4,2.3
			c-0.1-0.1-0.2-0.3-0.4-0.4L19.2,157z M10.8,157l2.3,4c-0.2,0.1-0.3,0.3-0.4,0.4l-4-2.3C9.2,158.3,9.9,157.6,10.8,157z M8.2,160
			l3.9,2.3c-0.1,0.2-0.1,0.4-0.2,0.6H7.4C7.5,161.9,7.7,160.9,8.2,160z M7.4,163.9h4.5c0,0.2,0.1,0.4,0.1,0.6l-3.9,2.2
			C7.7,165.9,7.4,164.9,7.4,163.9z M8.6,167.6l3.9-2.2c0.1,0.2,0.3,0.3,0.5,0.5l-2.2,3.9C9.9,169.2,9.2,168.5,8.6,167.6z M14.5,171
			c-1-0.1-2-0.3-2.9-0.8l2.2-3.8c0.2,0.1,0.4,0.1,0.7,0.2V171z M14.2,165c-0.3,0.1-0.6-0.1-0.6-0.4v-0.8l-0.5-0.6
			c-0.2-0.3-0.1-0.6,0.2-0.7l0.8-0.2l0.4-0.7c0.2-0.3,0.5-0.3,0.7,0l0.4,0.7l0.8,0.2c0.3,0.1,0.4,0.4,0.2,0.7l-0.5,0.6v0.8
			c0,0.3-0.2,0.5-0.6,0.4l-0.5-0.3L14.2,165z M15.5,171v-4.4c0.2,0,0.4-0.1,0.7-0.2l2.2,3.8C17.5,170.7,16.5,170.9,15.5,171z
			 M19.3,169.7l-2.2-3.9c0.2-0.1,0.3-0.3,0.5-0.5l3.9,2.2C20.8,168.5,20.1,169.2,19.3,169.7z M21.9,166.8l-3.9-2.2
			c0.1-0.2,0.1-0.4,0.1-0.6h4.5C22.6,164.9,22.3,165.9,21.9,166.8z"/>
		
			<linearGradient id="SVGID_2_" gradientUnits="userSpaceOnUse" x1="11.2943" y1="28.7495" x2="19.4837" y2="26.3457" gradientTransform="matrix(1 0 0 -1 0 181)">
			<stop  offset="0" style="stop-color:#E6D7B8"/>
			<stop  offset="6.045273e-02" style="stop-color:#F0E2C8"/>
			<stop  offset="0.4153" style="stop-color:#CFB991"/>
		</linearGradient>
		<path class="st7" d="M14.7,156c0.2,0.3,0.5,0.3,0.7,0l2.4-4.2c0-0.1,0.1-0.1,0.1-0.2c0-0.2-0.2-0.4-0.4-0.4h-4.8
			c-0.3,0-0.5,0.3-0.3,0.6L14.7,156z"/>
		
			<linearGradient id="SVGID_3_" gradientUnits="userSpaceOnUse" x1="5.7824" y1="6.2631" x2="20.6001" y2="1.6718" gradientTransform="matrix(1 0 0 -1 0 181)">
			<stop  offset="0" style="stop-color:#E6D7B8"/>
			<stop  offset="0.3393" style="stop-color:#F0E2C8"/>
			<stop  offset="0.4493" style="stop-color:#CFB991"/>
			<stop  offset="0.9936" style="stop-color:#F2DEBB"/>
		</linearGradient>
		<path class="st8" d="M21.1,176.8h-3.4V175c-0.9,0.2-1.8,0.3-2.7,0.3s-1.8-0.1-2.7-0.3v1.8H8.9c-0.7,0-1.2,0.4-1.2,1v0.2
			c0,0.6,0.5,1,1.2,1h12.2c0.7,0,1.2-0.4,1.2-1v-0.2C22.3,177.2,21.8,176.8,21.1,176.8z"/>
	</g>
</g>
</svg>
