<?xml version="1.0" encoding="utf-8"?>
<!-- Generator: Adobe Illustrator 25.2.1, SVG Export Plug-In . SVG Version: 6.00 Build 0)  -->
<svg version="1.1" id="圖層_1" xmlns="http://www.w3.org/2000/svg" xmlns:xlink="http://www.w3.org/1999/xlink" x="0px" y="0px"
	 viewBox="0 0 300 300" style="enable-background:new 0 0 300 300;" xml:space="preserve">
<style type="text/css">
	.st0{fill:#FFFFFF;}
</style>
<path class="st0" d="M204.2,103.4H92.7L110,86.1c3.4-3.4,3.4-9,0-12.4c-3.4-3.4-9-3.4-12.4,0l-39.9,39.8l39.9,39.8
	c1.7,1.7,4,2.6,6.2,2.6s4.5-0.9,6.2-2.6c3.4-3.4,3.4-9,0-12.4L90.1,121c0.1,0,0.1,0,0.2,0h113.9c11.3,0,20.5,9.2,20.5,20.5v49.3
	c0,11.3-9.2,20.5-20.5,20.5h-60.3c-4.9,0-8.8,3.9-8.8,8.8c0,4.9,3.9,8.8,8.8,8.8h60.3c21,0,38.1-17.1,38.1-38.1v-49.3
	C242.3,120.5,225.2,103.4,204.2,103.4z"/>
</svg>
