<?xml version="1.0" encoding="utf-8"?>
<!-- Generator: Adobe Illustrator 25.2.1, SVG Export Plug-In . SVG Version: 6.00 Build 0)  -->
<svg version="1.1" id="圖層_1" xmlns="http://www.w3.org/2000/svg" xmlns:xlink="http://www.w3.org/1999/xlink" x="0px" y="0px"
	 viewBox="0 0 300 300" style="enable-background:new 0 0 300 300;" xml:space="preserve">
<style type="text/css">
	.st0{fill:#FFFFFF;}
</style>
<g>
	<g>
		<path class="st0" d="M261.8,228.7H102.4c-5.7,0-10.2-4.6-10.2-10.2c0-5.7,4.6-10.2,10.2-10.2h159.4c5.7,0,10.2,4.6,10.2,10.2
			C272.1,224.1,267.5,228.7,261.8,228.7z"/>
		<circle class="st0" cx="51.6" cy="218.5" r="23.1"/>
	</g>
	<g>
		<path class="st0" d="M261.8,160.5H102.4c-5.7,0-10.2-4.6-10.2-10.2s4.6-10.2,10.2-10.2h159.4c5.7,0,10.2,4.6,10.2,10.2
			S267.5,160.5,261.8,160.5z"/>
		<circle class="st0" cx="51.6" cy="150.3" r="23.1"/>
	</g>
	<g>
		<path class="st0" d="M261.8,92.3H102.4c-5.7,0-10.2-4.6-10.2-10.2c0-5.7,4.6-10.2,10.2-10.2h159.4c5.7,0,10.2,4.6,10.2,10.2
			C272.1,87.7,267.5,92.3,261.8,92.3z"/>
		<circle class="st0" cx="51.6" cy="82.1" r="23.1"/>
	</g>
</g>
</svg>
