<?xml version="1.0" encoding="utf-8"?>
<!-- Generator: Adobe Illustrator 26.0.1, SVG Export Plug-In . SVG Version: 6.00 Build 0)  -->
<svg version="1.1" id="圖層_1" xmlns="http://www.w3.org/2000/svg" xmlns:xlink="http://www.w3.org/1999/xlink" x="0px" y="0px"
	 viewBox="0 0 300 300" style="enable-background:new 0 0 300 300;" xml:space="preserve">
<style type="text/css">
	.st0{fill:#FFFFFF;}
</style>
<g>
	<path class="st0" d="M101.4,156.1l-0.4-1.3c-1.3-4.6-6.2-7.3-10.8-5.9l-10.5,3l-3-10.5c-1.3-4.6-6.2-7.3-10.8-5.9l-1.3,0.4
		c-4.6,1.3-7.3,6.2-5.9,10.8l3,10.5l-10.5,3c-4.6,1.3-7.3,6.2-5.9,10.8l0.4,1.3c1.3,4.6,6.2,7.3,10.8,5.9l10.5-3l3,10.5
		c1.3,4.6,6.2,7.3,10.8,5.9l1.3-0.4c4.6-1.3,7.3-6.2,5.9-10.8l-3-10.5l10.5-3C100.1,165.6,102.8,160.7,101.4,156.1z"/>
	<ellipse transform="matrix(0.8579 -0.5138 0.5138 0.8579 -47.383 95.6571)" class="st0" cx="149.3" cy="133.5" rx="9.5" ry="9.5"/>
	<path class="st0" d="M179.4,124.7c5-1.5,7.9-6.7,6.5-11.8c-1.5-5-6.7-7.9-11.8-6.5c-5,1.5-7.9,6.7-6.5,11.8
		C169.1,123.3,174.3,126.2,179.4,124.7z"/>
	<path class="st0" d="M173.9,162c5-1.5,7.9-6.7,6.5-11.8c-1.5-5-6.7-7.9-11.8-6.5c-5,1.5-7.9,6.7-6.5,11.8S168.9,163.5,173.9,162z"
		/>
	<ellipse transform="matrix(0.962 -0.273 0.273 0.962 -29.3133 59.3776)" class="st0" cx="198.7" cy="135" rx="9.5" ry="9.5"/>
	<path class="st0" d="M114,197.8c1.4-3.8,2.7-7.3,4-10.3c0.8-1.9,2.5-3.3,4.5-3.9l20.8-6.1c2-0.6,4.2-0.3,5.9,0.8
		c2.7,1.8,5.7,4.1,8.9,6.5c11.1,8.5,23.8,18.1,34.9,14.8c16-4.7,29.1-15.3,37.1-29.9c7.9-14.6,9.6-31.5,4.8-47.4
		c-4.8-15.9-15.7-28.9-30.6-36.5c-15.4-7.9-33.7-9.2-50.2-3.6c-14.4,4.9-25.1,12.5-31.7,22.6c-0.9,1.4-2.4,2.5-4,3l-12.2,3.6
		c-1.7,0.5-3.4,0.4-5-0.3c-11-5-24.1-5.7-38.9-2.1c-17,4.1-31.7,15-40.5,30c-8.5,14.5-10.7,31.3-6.2,47.2c4.5,16,15,29.3,29.5,37.4
		c9.3,5.2,19.6,7.8,29.9,7.8c5.8,0,11.6-0.8,17.4-2.5C103.6,225.8,109.1,210.9,114,197.8z M49.9,215.1c-12.2-6.8-21-18-24.8-31.4
		c-3.7-13.4-1.9-27.4,5.2-39.6c7.4-12.6,19.9-21.9,34.3-25.4c5.5-1.3,10.6-2,15.4-2c6.3,0,11.9,1.2,17.1,3.5c3.7,1.7,7.9,2,11.8,0.8
		l12.2-3.6c3.9-1.1,7.3-3.6,9.5-7c5.4-8.3,14.1-14.5,26.6-18.7h0c14-4.8,29.5-3.7,42.5,3c12.5,6.4,21.6,17.3,25.7,30.6
		c4.1,13.4,2.6,27.5-4.1,39.8c-6.7,12.3-17.7,21.2-31.2,25.1c-6.4,1.9-17.4-6.5-26.2-13.2c-3.3-2.5-6.5-4.9-9.5-6.9
		c-4.1-2.7-9.3-3.5-14-2.1l-20.8,6.1c-4.8,1.4-8.7,4.8-10.7,9.3c-1.5,3.3-2.8,7-4.3,10.9c-3.8,10.4-8.6,23.3-15,25.2
		C76.3,223.4,62.1,221.8,49.9,215.1z"/>
	<path class="st0" d="M284.4,128.1C270.8,55.4,196.1,9.6,124.9,29.4c-10.2,2.8-20,6.7-29.2,11.9L84.5,24.4L64.4,78.9l56.7,0.2
		l-10.8-16.2c6.8-3.9,14.1-7,21.6-9.3c64.2-19.5,130.4,26.1,136.3,92.8c6.6,69.7-54,127.2-123.2,119.6
		c-20.5-2.2-40.6-10.1-57.4-22.8c-1.8-1.3-3.9,1.2-2.2,2.8c16.4,14.4,36.9,24.2,58.6,27.9C228.6,287.9,300.5,212.1,284.4,128.1z"/>
</g>
</svg>
