<?xml version="1.0" encoding="utf-8"?>
<!-- Generator: Adobe Illustrator 25.2.1, SVG Export Plug-In . SVG Version: 6.00 Build 0)  -->
<svg version="1.1" id="圖層_1" xmlns="http://www.w3.org/2000/svg" xmlns:xlink="http://www.w3.org/1999/xlink" x="0px" y="0px"
	 viewBox="0 0 300 300" style="enable-background:new 0 0 300 300;" xml:space="preserve">
<style type="text/css">
	.st0{fill:#FFFFFF;}
</style>
<g>
	<path class="st0" d="M112.8,136.7H79.6c-12.3,0-22.5-10.1-22.5-22.5V84.4c0-12.3,10.1-22.5,22.5-22.5h33.2
		c12.3,0,22.5,10.1,22.5,22.5v29.8C135.3,126.6,125.2,136.7,112.8,136.7z"/>
	<path class="st0" d="M220.4,136.7h-33.2c-12.3,0-22.5-10.1-22.5-22.5V84.4c0-12.3,10.1-22.5,22.5-22.5h33.2
		c12.3,0,22.5,10.1,22.5,22.5v29.8C242.8,126.6,232.7,136.7,220.4,136.7z"/>
	<path class="st0" d="M112.8,238.1H79.6c-12.3,0-22.5-10.1-22.5-22.5v-29.8c0-12.3,10.1-22.5,22.5-22.5h33.2
		c12.3,0,22.5,10.1,22.5,22.5v29.8C135.3,228,125.2,238.1,112.8,238.1z"/>
	<path class="st0" d="M220.4,238.1h-33.2c-12.3,0-22.5-10.1-22.5-22.5v-29.8c0-12.3,10.1-22.5,22.5-22.5h33.2
		c12.3,0,22.5,10.1,22.5,22.5v29.8C242.8,228,232.7,238.1,220.4,238.1z"/>
</g>
</svg>
