<?xml version="1.0" encoding="utf-8"?>
<!-- Generator: Adobe Illustrator 25.2.1, SVG Export Plug-In . SVG Version: 6.00 Build 0)  -->
<svg version="1.1" id="圖層_1" xmlns="http://www.w3.org/2000/svg" xmlns:xlink="http://www.w3.org/1999/xlink" x="0px" y="0px"
	 viewBox="0 0 300 300" style="enable-background:new 0 0 300 300;" xml:space="preserve">
<style type="text/css">
	.st0{fill:#FFFFFF;}
</style>
<g>
	<path class="st0" d="M88.2,167.2c3.7,0,6.7,3,6.7,6.7c0,3.6,2.9,6.5,6.5,6.5s6.5-2.9,6.5-6.5c0-8.6-5.6-15.7-13.2-18.5v-1
		c0-3.6-2.9-6.5-6.5-6.5s-6.5,2.9-6.5,6.5v1c-7.7,2.7-13.2,9.9-13.2,18.5c0,10.9,8.9,19.8,19.8,19.8c3.7,0,6.7,3,6.7,6.7
		c0,3.7-3,6.7-6.7,6.7c-3.7,0-6.7-3-6.7-6.7c0-3.6-2.9-6.5-6.5-6.5s-6.5,2.9-6.5,6.5c0,8.6,5.6,15.7,13.2,18.4v1
		c0,3.6,2.9,6.5,6.5,6.5s6.5-2.9,6.5-6.5v-1c7.7-2.7,13.2-9.9,13.2-18.4c0-10.9-8.9-19.8-19.8-19.8c-3.7,0-6.7-3-6.7-6.7
		S84.5,167.2,88.2,167.2z"/>
	<path class="st0" d="M259.2,82.8h-10.7c0.3-1.1,1.2-1.8,1.2-3V65.3c0-8-6.5-14.6-14.6-14.6H122.6c-8,0-14.6,6.5-14.6,14.6v14.5
		c0,8,6.5,14.6,14.6,14.6h10.7c-0.3,1.1-1.2,1.8-1.2,3v14.5c0,0.7,0.6,1,0.7,1.7h-4.6c-7,0-12.8,5.7-12.8,12.8v5.6
		c-8.3-4.1-17.2-6.9-27-6.9c-34.2,0-62.1,27.9-62.1,62.1s27.9,62,62.1,62c12.2,0,22.9-4.4,32.5-10.5c1.2,5.8,5.7,10.5,11.9,10.5
		h116.2c7,0,12.8-5.7,12.8-12.8v-18.1c0-1-0.9-1.7-1.1-2.7c3.4-2.3,6.1-5.6,6.1-10v-18c0-7.1-5.7-12.8-12.8-12.8h-5.5V157
		c0-0.5-0.4-0.7-0.5-1.2c5.2-1.7,9.3-5.7,9.3-11.4v-17.9h2.1c8,0,14.6-6.5,14.6-14.6V97.4C273.8,89.4,267.3,82.8,259.2,82.8z
		 M121.1,79.9V65.3c0-0.8,0.7-1.5,1.5-1.5h112.7c0.8,0,1.5,0.7,1.5,1.5v14.5c0,0.8-0.7,1.5-1.5,1.5H122.6
		C121.7,81.4,121.1,80.7,121.1,79.9z M39.3,187.2c0-27,22-49,49-49s49,22,49,49s-22,49-49,49S39.3,214.2,39.3,187.2z M132.9,236.5
		v-6.2c0-0.1-0.1-0.2-0.1-0.3c3.2-3.3,5.3-7.4,7.7-11.4l67.9-0.2h40.3l0.3,17.7L132.9,236.5z M253.8,205.4H146.6
		c1.8-5.6,3.5-11.3,3.5-17.5h85.4c0.2,0,0.3-0.2,0.5-0.2l17.5,0L253.8,205.4z M151.1,174.8h-3.3c-1.3-6.3-3.2-12.1-6.3-17.5h93.8
		l0.3,17.5H151.1z M244.3,144.2h-8.8H132.7c-1.3-1.3-2.9-2.2-4.3-3.4l-0.3-14.1l73.8-0.2H244L244.3,144.2z M260.7,111.9
		c0,0.8-0.7,1.5-1.5,1.5H146.6c-0.8,0-1.5-0.7-1.5-1.5V97.4c0-0.8,0.7-1.5,1.5-1.5h112.7c0.8,0,1.5,0.7,1.5,1.5V111.9z"/>
</g>
</svg>
