<?xml version="1.0" encoding="utf-8"?>
<!-- Generator: Adobe Illustrator 25.2.1, SVG Export Plug-In . SVG Version: 6.00 Build 0)  -->
<svg version="1.1" id="圖層_1" xmlns="http://www.w3.org/2000/svg" xmlns:xlink="http://www.w3.org/1999/xlink" x="0px" y="0px"
	 viewBox="0 0 300 300" style="enable-background:new 0 0 300 300;" xml:space="preserve">
<style type="text/css">
	.st0{fill:#FFFFFF;}
</style>
<g>
	<path class="st0" d="M56.9,139.6v12.7c0,3.3,2.7,6,6,6c3.3,0,6-2.7,6-6l6.4-0.7l-8.1,29.9c-0.9,3.2,1,6.5,4.2,7.4
		c0.5,0.1,1.1,0.2,1.6,0.2c2.7,0,5.1-1.8,5.8-4.5L91,139.5H56.9V139.6z"/>
	<path class="st0" d="M125.4,158.4c3.3,0,6-2.7,6-6l6.4-0.7l-8.1,29.9c-0.9,3.2,1,6.5,4.2,7.4c0.5,0.1,1.1,0.2,1.6,0.2
		c2.7,0,5.1-1.8,5.8-4.5l12.2-45.1h-34.2v12.7C119.4,155.7,122.1,158.4,125.4,158.4z"/>
	<path class="st0" d="M181.9,152.4c0,3.3,2.7,6,6,6s6-2.7,6-6l6.4-0.7l-8.1,29.9c-0.9,3.2,1,6.5,4.2,7.4c0.5,0.1,1.1,0.2,1.6,0.2
		c2.7,0,5.1-1.8,5.8-4.5l12.2-45.1h-34.2v12.8H181.9z"/>
	<path class="st0" d="M272.3,134.8c0-14.7-12-26.8-26.8-26.8c-1.7,0-3.2,0.7-4.3,1.8c-3.9-11.7-13.3-20.7-25.2-24.2
		c0-0.1,0.1-0.2,0.1-0.3c0-11.8-9.6-21.3-21.3-21.3H76.2c-11.8,0-21.3,9.6-21.3,21.3c0,0.1,0.1,0.2,0.1,0.3
		c-15.7,4.6-27.3,19-27.3,36.1v76.4c0,20.8,17,37.8,37.8,37.8h140.2c18.8,0,34.2-13.8,37.2-31.7c0.7-0.2,1.4-0.2,2-0.7l17.1-13.9
		V160c0-1.2-0.5-2.3-1.1-3.3C267.8,151.9,272.3,143.9,272.3,134.8z M76.2,76.1h118.6c4.6,0,8.3,3.5,9,7.9H67.2
		C67.9,79.5,71.6,76.1,76.2,76.1z M162.3,103.3v113.4h-53.4V103.3H162.3z M47,198.2v-76.4c0-10.2,8.3-18.5,18.5-18.5h31.3v113.4
		H65.5C55.3,216.7,47,208.4,47,198.2z M224.1,198.2c0,10.2-8.3,18.4-18.4,18.4h-31.3V103.3h31.3c10.2,0,18.4,8.3,18.4,18.5V198.2z
		 M245.6,120.1c8.1,0,14.7,6.6,14.7,14.7s-6.6,14.7-14.7,14.7c-0.8,0-1.5,0.2-2.1,0.4v-28.1c0-0.7-0.2-1.4-0.2-2.2
		C243.9,119.9,244.7,120.1,245.6,120.1z M249.9,183.9l-6.5,5.2V161c0.7,0.3,1.4,0.4,2.1,0.4c1.5,0,2.9-0.2,4.3-0.4L249.9,183.9
		L249.9,183.9z"/>
</g>
</svg>
