<?xml version="1.0" encoding="utf-8"?>
<!-- Generator: Adobe Illustrator 25.2.1, SVG Export Plug-In . SVG Version: 6.00 Build 0)  -->
<svg version="1.1" id="圖層_1" xmlns="http://www.w3.org/2000/svg" xmlns:xlink="http://www.w3.org/1999/xlink" x="0px" y="0px"
	 viewBox="0 0 300 300" style="enable-background:new 0 0 300 300;" xml:space="preserve">
<style type="text/css">
	.st0{fill:#FFFFFF;}
</style>
<g>
	<path class="st0" d="M233.7,50.3H66.3c-21.6,0-39.1,17.6-39.1,39.1v81.9c0,21.6,17.6,39.1,39.1,39.1h82.2l60.6,39.3v-39.3h24.7
		c21.6,0,39.1-17.6,39.1-39.1V89.4C272.9,67.8,255.3,50.3,233.7,50.3z M254.8,171.3c0,11.6-9.5,21.1-21.1,21.1H66.3
		c-11.6,0-21.1-9.5-21.1-21.1V89.4c0-11.6,9.5-21.1,21.1-21.1h167.4c11.6,0,21.1,9.5,21.1,21.1V171.3z"/>
	<path class="st0" d="M106.2,119.8c-6.9,0-12.6,5.6-12.6,12.6c0,6.9,5.6,12.6,12.6,12.6c6.9,0,12.6-5.6,12.6-12.6
		C118.7,125.5,113.1,119.8,106.2,119.8z"/>
	<path class="st0" d="M152.3,119.8c-6.9,0-12.6,5.6-12.6,12.6c0,6.9,5.6,12.6,12.6,12.6c6.9,0,12.6-5.6,12.6-12.6
		C164.9,125.5,159.2,119.8,152.3,119.8z"/>
	<path class="st0" d="M198.4,119.8c-6.9,0-12.6,5.6-12.6,12.6c0,6.9,5.6,12.6,12.6,12.6c6.9,0,12.6-5.6,12.6-12.6
		C211,125.5,205.3,119.8,198.4,119.8z"/>
</g>
</svg>
