<?xml version="1.0" encoding="utf-8"?>
<!-- Generator: Adobe Illustrator 26.0.1, SVG Export Plug-In . SVG Version: 6.00 Build 0)  -->
<svg version="1.1" id="圖層_1" xmlns="http://www.w3.org/2000/svg" xmlns:xlink="http://www.w3.org/1999/xlink" x="0px" y="0px"
	 viewBox="0 0 300 300" style="enable-background:new 0 0 300 300;" xml:space="preserve">
<style type="text/css">
	.st0{fill:#231815;}
</style>
<g>
	<circle class="st0" cx="248.8" cy="170.7" r="11.7"/>
	<circle class="st0" cx="234" cy="196.4" r="11.7"/>
	<circle class="st0" cx="211.9" cy="216.5" r="11.7"/>
	<path class="st0" d="M159,143.3V78.8c0-5.3-4.3-9.5-9.5-9.5s-9.5,4.3-9.5,9.5v72.9l28.6,25.9c1.8,1.6,4.1,2.4,6.4,2.4
		c2.6,0,5.2-1,7.1-3.1c3.5-3.9,3.2-9.9-0.7-13.5L159,143.3z"/>
	<path class="st0" d="M150.2,206.4c-3.7-3.7-9.7-3.7-13.4,0s-3.7,9.7,0,13.4l10.5,10.5c-50.9-1.2-91.9-43-91.9-94.2
		c0-51.9,42.3-94.2,94.2-94.2s94.2,42.3,94.2,94.2c0,5.3,4.3,9.5,9.5,9.5s9.5-4.3,9.5-9.5c0-62.4-50.8-113.2-113.2-113.2
		S36.3,73.7,36.3,136.1c0,61.7,49.6,112,111,113.2l-10.5,10.5c-3.7,3.7-3.7,9.8,0,13.5c1.9,1.9,4.3,2.8,6.8,2.8s4.9-0.9,6.7-2.8
		l26.7-26.7c1.8-1.8,2.8-4.2,2.8-6.8c0-2.5-1-4.9-2.8-6.7L150.2,206.4z"/>
</g>
</svg>
