<?xml version="1.0" encoding="utf-8"?>
<!-- Generator: Adobe Illustrator 25.2.1, SVG Export Plug-In . SVG Version: 6.00 Build 0)  -->
<svg version="1.1" id="圖層_1" xmlns="http://www.w3.org/2000/svg" xmlns:xlink="http://www.w3.org/1999/xlink" x="0px" y="0px"
	 viewBox="0 0 300 300" style="enable-background:new 0 0 300 300;" xml:space="preserve">
<style type="text/css">
	.st0{fill:#FFFFFF;}
</style>
<path class="st0" d="M167.3,150l88.1-88.1c4.8-4.8,4.8-12.5,0-17.3s-12.5-4.8-17.3,0L150,132.7L61.9,44.6c-4.8-4.8-12.5-4.8-17.3,0
	s-4.8,12.5,0,17.3l88.1,88.1l-88.1,88.1c-4.8,4.8-4.8,12.5,0,17.3c2.4,2.4,5.5,3.6,8.6,3.6s6.2-1.2,8.6-3.6l88.1-88.1l88.1,88.1
	c2.4,2.4,5.5,3.6,8.6,3.6s6.2-1.2,8.6-3.6c4.8-4.8,4.8-12.5,0-17.3L167.3,150z"/>
</svg>
