<?xml version="1.0" encoding="utf-8"?>
<!-- Generator: Adobe Illustrator 22.1.0, SVG Export Plug-In . SVG Version: 6.00 Build 0)  -->
<svg version="1.1" id="圖層_1" xmlns="http://www.w3.org/2000/svg" xmlns:xlink="http://www.w3.org/1999/xlink" x="0px" y="0px"
	 viewBox="0 0 300 300" style="enable-background:new 0 0 300 300;" xml:space="preserve">
<style type="text/css">
	.st0{fill:#FFFFFF;}
</style>
<g>
	<path class="st0" d="M270.4,113.4l-13.2-6.4l0.9-2.9c5.1-17-4.6-35-21.6-40.2l-55-16.5c-8.2-2.5-17-1.6-24.5,2.5
		c-7.6,4.1-13.2,10.9-15.6,19.1l-9,30.1c-6.7-3.3-14.5-4.2-22-1.8l-72,22.5c-7.6,2.4-13.8,7.6-17.6,14.7c-3.7,7.1-4.5,15.2-2.1,22.8
		l21,67.1c2.4,7.6,7.6,13.9,14.7,17.6c4.4,2.3,9.1,3.5,13.9,3.5c3,0,6-0.5,8.9-1.4l64.6-20.2l60.9,29.5c11.1,5.4,24.4,0.7,29.8-10.4
		l48.3-99.8C286.1,132.1,281.5,118.7,270.4,113.4z M72.3,228.6c-7.2,2.1-14.9-1.8-17.1-9l-21-67.1c-1.1-3.5-0.7-7.2,1-10.4
		c1.7-3.2,4.5-5.6,8-6.7l72-22.5c1.3-0.4,2.7-0.6,4.1-0.6c5.8,0,11.2,3.7,13,9.6l21,67.1c1.1,3.5,0.8,7.2-1,10.4
		c-1.7,3.2-4.5,5.6-8,6.7L72.3,228.6z M163.8,210.6c0.1-0.1,0.1-0.2,0.2-0.3l0,0.2L163.8,210.6z M185.6,190l10.1-7.3l0.5,12.4
		L185.6,190z M215.9,186.5c-7.5,2.6-15.4-1.2-18-8.7c-7.5,2.6-15.4-1.2-18-8.7c-2.6-7.5,1.4-15.7,8.9-18.3l26.5-9l9.4,26.4
		C227.3,175.7,223.4,183.9,215.9,186.5z M203.4,80.9c-11.1-5.4-24.4-0.7-29.8,10.4l-20.6,42.4l-5.3-16.8c-0.5-1.7-1.7-3-2.5-4.5
		L157,73.7c2.5-8.4,11.6-13.2,19.9-10.7l55,16.5c8.4,2.5,13.2,11.5,10.7,19.9l-0.1,0.4L203.4,80.9z"/>
	<path class="st0" d="M72.8,196.4c-4.9,1.5-7.7,6.8-6.1,11.7c1.5,4.9,6.8,7.7,11.7,6.1c4.9-1.5,7.7-6.8,6.1-11.7
		C83,197.6,77.8,194.8,72.8,196.4z"/>
	<path class="st0" d="M125.5,179.9c-4.9,1.5-7.7,6.8-6.1,11.7c1.5,4.9,6.8,7.7,11.7,6.1c4.9-1.5,7.7-6.8,6.1-11.7
		C135.7,181.1,130.5,178.3,125.5,179.9z"/>
	<path class="st0" d="M120.8,133.3c-1.5-4.9-6.8-7.7-11.7-6.1s-7.7,6.8-6.1,11.7c1.5,4.9,6.8,7.7,11.7,6.1
		C119.6,143.5,122.3,138.2,120.8,133.3z"/>
	<path class="st0" d="M68.1,149.8c-1.5-4.9-6.8-7.7-11.7-6.1c-4.9,1.5-7.7,6.8-6.1,11.7c1.5,4.9,6.8,7.7,11.7,6.1
		C66.9,160,69.6,154.7,68.1,149.8z"/>
	<path class="st0" d="M91,161.8c-4.9,1.5-7.7,6.8-6.1,11.7c1.5,4.9,6.8,7.7,11.7,6.1c4.9-1.5,7.7-6.8,6.1-11.7
		C101.1,163,95.9,160.2,91,161.8z"/>
</g>
</svg>
