<?xml version="1.0" encoding="utf-8"?>
<!-- Generator: Adobe Illustrator 22.1.0, SVG Export Plug-In . SVG Version: 6.00 Build 0)  -->
<svg version="1.1" id="圖層_1" xmlns="http://www.w3.org/2000/svg" xmlns:xlink="http://www.w3.org/1999/xlink" x="0px" y="0px"
	 viewBox="0 0 300 300" style="enable-background:new 0 0 300 300;" xml:space="preserve">
<style type="text/css">
	.st0{fill:#FFFFFF;}
</style>
<path class="st0" d="M150.5,25.4c-69.2,0-125.5,56.3-125.5,125.5c0,69.2,56.3,125.5,125.5,125.5c69.2,0,125.5-56.3,125.5-125.5
	C276,81.7,219.7,25.4,150.5,25.4z M255.7,150.9c0,18.5-5.2,35.7-13.7,50.9c-3.1-1.5-6.1-2.9-9.1-4.3c4.6-11.9,4.1-23.9,1.9-36.1
	c-0.2-0.8,0.1-2,0.7-2.7c6.4-8.2,10.4-17.3,11.8-27.6c0.1-0.7,0-1.5,0.1-2.3c0-0.8,0-1.5,0-2.7c2.2,1.1,4.1,2.1,6.1,3.1
	C254.9,136.2,255.7,143.4,255.7,150.9z M181.3,251c-1.7-0.7-3.3-1.6-5-2.4c0,0,0-0.1-0.2-0.4c4.6-2.4,8.7-5.5,12.2-9.2
	c3.7-4,6.6-8.5,8.6-13.5c0.5-1.2,1.1-1.7,2.3-2.1c10.4-3.4,19.8-8.6,27.4-16.7c0.8-0.8,1.5-1.7,2.2-2.5c0.7-0.8,1.3-1.7,2.1-2.7
	c2.9,1.4,5.9,2.8,9.1,4.3C226.7,227.2,205.9,243.4,181.3,251z M149.2,45.8c0,2.1,0,4.1,0,6c0,3.3,0,3.3-3.2,4.3
	c-12.5,3.7-23.9,9.5-33.5,18.5c-0.4,0.3-1,0.7-1.5,0.6c-10.2-1.4-20,0.6-29.9,3.8c0-2.3,0-4.4,0-6.5
	C99.4,56.3,123.1,46.2,149.2,45.8z M221.1,73.4c0.2,2.7,0.4,5.5,0.5,8.1c-3.9-1-7.7-2.2-11.5-2.9c-6.1-1.2-12.2-1.2-18.4-0.7
	c-2,0.2-3.5,0-5.2-1.5c-9.3-8.2-19.7-14.7-31-19.8c-1.4-0.6-2-1.3-1.9-3c0.2-2.4,0.1-4.9,0-7.5C179.7,46.8,203.2,57,221.1,73.4z
	 M230.5,96.1c5.9,8.2,9.7,17.3,12.2,27.1c0.1,0.2,0.1,0.5,0.1,0.7c0,1.3,0,2.6,0,3.9c0.2,8.9-3,16.7-7.7,24
	c-3.5,5.5-3.6,5.3-10.1,4.4c-8.6-1.3-17.2-2.3-25.8-3.4c-1.4-0.2-2.1-0.7-2.6-2c-4.5-11.3-10-22.2-17.4-32c-0.9-1.2-1.8-2.3-2.8-3.4
	c-0.8-0.8-0.8-1.4-0.3-2.4c4-8.8,8.1-17.5,11.7-26.5c1.3-3.1,2.6-4.3,6.1-4.4c7.5-0.2,14.8,0.4,22.1,2.4
	C222.5,86.2,226.7,90.9,230.5,96.1z M81.8,83.5c6.6-2.4,13.4-4,20.4-4.4c2.4-0.1,4.9,0.2,7.4,0.3c1.2,0,1.3,0.9,1.6,1.8
	c1.9,6.7,3.6,13.4,5.7,20.1c1.3,4.2,3.2,8.2,4.9,12.2c0.4,0.9,0.2,1.5-0.4,2.2c-6.3,8.4-12.2,17.1-16.6,26.6
	c-1.2,2.6-2.2,5.4-3.4,8.2c-10.4,0.3-20.6,1.9-30.7,4.2c-1,0.2-1.8,0.1-2.4-0.9c-5.8-9.2-9.7-19-9.7-30c0-4.7,1.9-9,3.8-13.2
	c4-9.4,9.8-17.7,16.7-25.2C79.8,84.5,80.8,83.9,81.8,83.5z M118.4,127.3c2.2-3.3,4.5-6.4,6.9-9.5c0.4-0.5,1.2-1,1.8-1
	c8.4-0.4,16.8-0.6,24.7-0.9c6,0.2,11.6,0.4,17.1,0.5c1.8,0,3.2,0.6,4.4,2c6.1,7.3,10.8,15.5,14.9,24.1c1.6,3.4,3.1,6.9,4.5,10.5
	c0.3,0.6,0.2,1.7-0.2,2.2c-7.5,11.6-15,23.2-22.6,34.8c-0.3,0.5-1.1,0.9-1.7,1c-9.4,1.4-18.8,2.2-28.2,1.4c-3.5-0.3-7-0.8-10.4-1.5
	c-0.9-0.2-1.9-1.1-2.5-1.9c-8.4-11-15.4-22.9-21.2-35.5c-0.3-0.7-0.4-1.6-0.1-2.3C108.7,142.5,113.3,134.8,118.4,127.3z M109,218.9
	c6-7.6,12.1-15.2,18.2-22.8c0.6-0.8,1.1-1,2.1-0.8c12.5,2.7,25,2.1,37.6,0.3c2.1-0.3,3.3,0.1,4.6,1.9c6.1,8.8,13,16.9,20.8,24.3
	c0.9,0.8,1,1.4,0.5,2.5c-4.4,9.9-11.4,17.2-21.4,21.2c-3.4,1.4-7.4,1.6-11.2,2.1c-4,0.5-8.1,0.6-10.1,0.8c-7.5,0-13-0.3-18.3-1.9
	c-9.5-2.7-16.3-8.7-20.6-17.5c-1.2-2.5-1.9-5.1-2.6-7.8C108.3,220.5,108.5,219.5,109,218.9z M53.7,125c0.8,4.2,1.4,8.4,2.4,12.5
	c1.7,7,4.9,13.4,8.9,19.4c0.5,0.7,0.7,1.7,0.6,2.5c-0.5,6.2-1.4,12.5-1.5,18.7c-0.1,5.4,0.9,10.8,1.3,16.2c0,0.5,0,1.4-0.4,1.6
	c-2.3,1.2-4.7,2.4-7.2,3.7c-7.7-14.6-12.5-31.1-12.5-48.7c0-8.4,1.3-16.5,3.1-24.3C50.3,126.1,52.1,125.5,53.7,125z M60,203.5
	c2.4-1.2,4.8-2.4,7-3.6c1-0.5,1.6-0.3,2.4,0.5c5.8,5.9,12.1,11.3,19.3,15.5c4.7,2.8,9.6,4.8,15.2,5.3c2.2,10.9,7.9,19.6,17.7,25.7
	c-1.6,1.1-3.1,2.2-4.5,3.1C92.8,241.9,72.7,225.3,60,203.5z"/>
</svg>
