<?xml version="1.0" encoding="utf-8"?>
<!-- Generator: Adobe Illustrator 25.2.1, SVG Export Plug-In . SVG Version: 6.00 Build 0)  -->
<svg version="1.1" id="圖層_1" xmlns="http://www.w3.org/2000/svg" xmlns:xlink="http://www.w3.org/1999/xlink" x="0px" y="0px"
	 viewBox="0 0 300 300" style="enable-background:new 0 0 300 300;" xml:space="preserve">
<style type="text/css">
	.st0{fill:#FFFFFF;}
</style>
<path class="st0" d="M198.5,183.1c16.9,9.8,34.2,16.2,42.3,14.3c10.9-2.4,42-32.1,32.7-44.3c-7.9-10.2-55.2-1.6-77.5,3.9
	c-2.5-12.5-8.4-27.3-17.9-42.7c19.8-3.9,55.5-15,24.5-41c-32-26.8-82.5-22.3-103.8-18.8c-35.6-9.3-68.8-4.7-73,0.9
	c-4.1,5.5,1.2,37.6,19.6,68.4c0.6,8.7,2.7,20.2,10.1,29.9c8.8,11.8,11.6,4,12.6-2.6c2.2,2.2,3.9,4.6,6.3,6.6
	c2.3,17,8.1,39.8,25.3,53.4c25.6,20.4,24.7-18.5,24.1-28c18.8,5.3,35.8,6.5,49.2,5.2c1.2,22.8,6.8,70.7,18.9,75.2
	c14.4,5.3,33.6-33.1,32.7-44.3C224,211.1,212.7,196.4,198.5,183.1z M64.4,84.2c-3.9-2.9-4.7-8.3-1.8-12.1c2.9-3.9,8.3-4.7,12.1-1.8
	c3.9,2.9,4.6,8.3,1.8,12.1C73.7,86.2,68.2,87,64.4,84.2z"/>
</svg>
