<?xml version="1.0" encoding="utf-8"?>
<!-- Generator: Adobe Illustrator 25.2.1, SVG Export Plug-In . SVG Version: 6.00 Build 0)  -->
<svg version="1.1" id="圖層_1" xmlns="http://www.w3.org/2000/svg" xmlns:xlink="http://www.w3.org/1999/xlink" x="0px" y="0px"
	 viewBox="0 0 300 300" style="enable-background:new 0 0 300 300;" xml:space="preserve">
<style type="text/css">
	.st0{fill:#FFFFFF;}
</style>
<g>
	<path class="st0" d="M120,110.8l-0.5,38.2l39.5-5l-0.2,12.1l-39.3,5l-0.3,10.1l52.3-6.6c1.9-0.3,3.6-1.1,5-2.7
		c1.4-1.5,2.1-3.3,2.1-5.4l0.9-53.1L120,110.8z M139.3,136.4l0.4-18.1l19.8-2.5l-0.3,18.1L139.3,136.4z"/>
	<path class="st0" d="M269.5,107.1c-2.8-5.6-7.2-9.8-12.2-13.3c5.2-10.5,1.7-24.9-3.1-30.2c-9.7-10.7-12-19.7-18.2-22.8
		c6.3,19.6,6.3,36.7-2.4,40.8c-7.4,3.5-16.6-1.1-22.2-4.5c-2.7-20.4-21.2-34.7-41.7-32.3l-62.6,7.9C86.7,55.4,72.2,74,74.7,94.4
		c-4.5,4.8-12.3,11.4-20.4,9.9c-9.5-1.8-13.8-18.4-12.5-38.9c-5.3,4.5-5.1,13.8-11.9,26.5c-4.7,8.9-3.1,35.5,17.9,37.1
		c12.3,1,23.2-2.5,30.5-5.6l9,71c1.3,9.9,6.3,18.7,14.2,24.9c6,4.6,13,7.3,20.4,7.8c1.9,0.1,3.9,0,5.9-0.2c-0.1,3.7,1.6,7.3,5.3,8.5
		l59.9,19.7c3,1,6.2,1.6,9.3,1.8c6.6,0.4,13.2-0.9,19.2-4c8.9-4.5,15.5-12.2,18.7-21.7l31.4-95.6C274.7,126.1,274,116,269.5,107.1z
		 M126.9,209.7c-5.3,0.7-10.6-0.8-14.9-4.1c-4.2-3.3-7-8-7.6-13.4L91.8,92.4c-1.4-11,6.4-21.1,17.5-22.5l62.6-7.9
		c1.3-0.2,2.6-0.2,3.8-0.1c9.4,0.6,17.4,7.8,18.7,17.6l12.6,99.9c1.4,11-6.4,21.1-17.4,22.5L126.9,209.7z M255.2,130.2l-31.4,95.6
		c-1.7,5.1-5.3,9.3-10,11.7c-4.8,2.4-10.3,2.8-15.4,1.1L153,223.8l38.7-4.9c9.9-1.3,18.7-6.3,24.8-14.2c6.1-7.9,8.8-17.7,7.6-27.6
		l-9-71c7,1.1,16.7,1.3,27.2-1.4c0.1,0,0.1,0.1,0.1,0.1C252.9,108.3,258.7,119.7,255.2,130.2z"/>
</g>
</svg>
