<?xml version="1.0" encoding="utf-8"?>
<!-- Generator: Adobe Illustrator 25.2.1, SVG Export Plug-In . SVG Version: 6.00 Build 0)  -->
<svg version="1.1" id="圖層_1" xmlns="http://www.w3.org/2000/svg" xmlns:xlink="http://www.w3.org/1999/xlink" x="0px" y="0px"
	 viewBox="0 0 300 300" style="enable-background:new 0 0 300 300;" xml:space="preserve">
<style type="text/css">
	.st0{fill:#FFFFFF;}
</style>
<path class="st0" d="M251.1,120.6c0-6.2-3.1-12-8.5-17.1c5.4-5,8.5-10.9,8.5-17.2c0-19.6-28.6-34.4-66.5-34.4
	c-37.9,0-66.5,14.8-66.5,34.4c0,19.6,28.6,34.3,66.5,34.3c17.5,0,32.9-3.2,44.6-8.5c4.1,2.8,6.6,5.8,6.6,8.4c0,7.7-19.9,19-51.2,19
	c-1.3,0-2.4,0.4-3.4,0.9c-4.6-16.9-31.3-29.1-65.7-29.1c-37.9,0-66.5,14.8-66.5,34.4c0,6.4,3.1,12.2,8.4,17.2
	c-5.4,5.1-8.4,10.9-8.4,17.1c0,6.4,3.1,12.3,8.6,17.3c-5.5,5.1-8.6,11-8.6,17.2c0,19.6,28.6,34.4,66.5,34.4
	c32.6,0,58.3-11,64.8-26.5c1.2,0.9,2.7,1.5,4.3,1.5c37.9,0,66.5-14.7,66.5-34.3c0-6.2-3.1-12.1-8.5-17.2c5.4-5,8.5-10.9,8.5-17.3
	c0-6.3-3.1-12.1-8.6-17.2C248,132.9,251.1,127.1,251.1,120.6z M133.4,86.3c0-7.7,19.9-19,51.2-19c31.2,0,51.2,11.3,51.2,19
	c0,7.7-19.9,19-51.2,19C153.3,105.3,133.4,94.1,133.4,86.3z M115.4,126.8c31.2,0,51.2,11.3,51.2,19c0,7.7-19.9,19-51.2,19
	s-51.2-11.3-51.2-19C64.3,138.1,84.2,126.8,115.4,126.8z M115.4,180.2c17.5,0,32.9-3.2,44.6-8.5c4.1,2.8,6.6,5.8,6.6,8.4
	c0,7.7-19.9,19-51.2,19s-51.2-11.3-51.2-19c0-2.6,2.5-5.6,6.6-8.4C82.5,177,98,180.2,115.4,180.2z M115.4,233.7
	c-31.2,0-51.2-11.3-51.2-19c0-2.6,2.6-5.7,6.8-8.6c11.6,5.2,27,8.4,44.4,8.4c17.4,0,32.7-3.1,44.3-8.4c4.3,2.8,6.8,5.9,6.8,8.6
	C166.6,222.4,146.7,233.7,115.4,233.7z M235.7,189.7c0,7.7-19.9,19-51.2,19c-1.3,0-2.4,0.4-3.5,1c-1.1-4.4-3.7-8.5-7.7-12.1
	c3.1-2.9,5.5-6,6.9-9.4c1.2,0.9,2.7,1.5,4.3,1.5c17.4,0,32.8-3.1,44.4-8.4C233.2,183.9,235.7,187,235.7,189.7z M235.7,155.2
	c0,7.7-19.9,19-51.2,19c-1.3,0-2.4,0.4-3.5,0.9c-1.1-4.3-3.7-8.4-7.6-12.1c3.1-2.9,5.5-6.1,6.9-9.5c1.2,0.8,2.6,1.4,4.2,1.4
	c17.4,0,32.8-3.1,44.4-8.4C233.2,149.4,235.7,152.5,235.7,155.2z"/>
</svg>
