<?xml version="1.0" encoding="utf-8"?>
<!-- Generator: Adobe Illustrator 25.2.1, SVG Export Plug-In . SVG Version: 6.00 Build 0)  -->
<svg version="1.1" id="圖層_1" xmlns="http://www.w3.org/2000/svg" xmlns:xlink="http://www.w3.org/1999/xlink" x="0px" y="0px"
	 viewBox="0 0 300 300" style="enable-background:new 0 0 300 300;" xml:space="preserve">
<style type="text/css">
	.st0{fill:#FFFFFF;}
</style>
<path class="st0" d="M245.1,103.9L195,50.4c-1.7-1.8-4-2.8-6.5-2.8H74.3c-4.9,0-8.9,4-8.9,8.9v186.9c0,4.9,4,8.9,8.9,8.9h164.3
	c4.9,0,8.9-4,8.9-8.9V110C247.5,107.7,246.7,105.5,245.1,103.9z M227.8,111.4h-38.9V69.9L227.8,111.4z M176.2,65.4v52.3
	c0,3.5,2.9,6.4,6.4,6.4h47.2v77.2h-22.1v-49.7H184v49.7h-15.6v-68.9h-23.7v68.9H129V170h-23.7v31.4H83.2V65.4H176.2z M83.2,234.6
	v-20.5h146.5v20.5H83.2z"/>
</svg>
