<?xml version="1.0" encoding="utf-8"?>
<!-- Generator: Adobe Illustrator 25.2.1, SVG Export Plug-In . SVG Version: 6.00 Build 0)  -->
<svg version="1.1" id="圖層_1" xmlns="http://www.w3.org/2000/svg" xmlns:xlink="http://www.w3.org/1999/xlink" x="0px" y="0px"
	 viewBox="0 0 300 300" style="enable-background:new 0 0 300 300;" xml:space="preserve">
<style type="text/css">
	.st0{fill:#FFFFFF;}
</style>
<g>
	<path class="st0" d="M272.1,99c-3.5-8.2-9.8-14.3-17.5-17.4l-53.6-21.1c-16-6.2-34,2.7-39.9,20.1l-10.3,30.6l-13.1-39
		c-4.2-12.4-16.9-18.8-28.4-14.3L39.6,85.2c-11.5,4.5-17.4,18.3-13.2,30.7L64,227.8c4.2,12.4,16.9,18.8,28.4,14.3l57.7-22.7
		l51.1,20.1c3.5,1.4,7.1,2,10.6,2c12.7,0,24.7-8.5,29.3-22.1l31.9-94.7C275.9,116.3,275.6,107.1,272.1,99z M104.7,180.7l1.8-13.2
		l9.2,8.9L104.7,180.7z M123.4,154.6c-3.3,7.7-11.5,10.9-18.6,7.3c-3.3,7.7-11.5,10.9-18.6,7.3c-7.2-3.6-10.2-12.8-6.9-20.5l12-27.2
		l25.3,12.5C123.7,137.7,126.7,146.9,123.4,154.6z M259.6,119.4l-31.9,94.7c-1.5,4.5-4.6,8.1-8.7,10.2c-4.1,2.1-8.7,2.2-12.8,0.6
		l-53.6-21.1c-4.2-1.6-7.5-5-9.4-9.4c-1.9-4.4-2.1-9.3-0.6-13.8l31.9-94.7c3.2-9.4,12.9-14.2,21.5-10.8l53.6,21.1
		C258.3,99.6,262.8,110,259.6,119.4z"/>
	<polygon class="st0" points="185.8,176.2 196.8,180.5 195,167.3 	"/>
	<path class="st0" d="M210.7,121.6l-25.3,12.5c-7.2,3.6-10.2,12.8-6.9,20.5c3.3,7.7,11.5,10.9,18.6,7.3c3.3,7.7,11.5,10.9,18.6,7.3
		c7.2-3.6,10.2-12.8,6.9-20.5L210.7,121.6z"/>
</g>
</svg>
