<?xml version="1.0" encoding="utf-8"?>
<!-- Generator: Adobe Illustrator 25.2.1, SVG Export Plug-In . SVG Version: 6.00 Build 0)  -->
<svg version="1.1" id="圖層_1" xmlns="http://www.w3.org/2000/svg" xmlns:xlink="http://www.w3.org/1999/xlink" x="0px" y="0px"
	 viewBox="0 0 300 300" style="enable-background:new 0 0 300 300;" xml:space="preserve">
<style type="text/css">
	.st0{fill:#FFFFFF;}
</style>
<path class="st0" d="M273.5,238.1c-21.2-26.5-49.4-44.9-80.6-53.9c20.1-13.7,33.3-36.8,33.3-62.9c0-42-34.2-76.2-76.2-76.2
	c-42,0-76.2,34.2-76.2,76.2c0,26.1,13.2,49.2,33.3,62.9c-31.3,9-59.5,27.4-80.6,53.9c-3.6,4.5-2.8,11,1.6,14.6
	c4.4,3.6,10.9,2.8,14.6-1.6c26.6-33.3,65.7-52.4,107.3-52.4s80.7,19.1,107.3,52.4c2.1,2.5,5.1,3.9,8.1,3.9c2.3,0,4.6-0.7,6.5-2.3
	C276.3,249.1,277,242.5,273.5,238.1z M94.5,121.3c0-30.6,24.9-55.5,55.5-55.5s55.5,24.9,55.5,55.5s-24.9,55.5-55.5,55.5
	S94.5,151.9,94.5,121.3z"/>
</svg>
