<svg id="圖層_3" data-name="圖層 3" xmlns="http://www.w3.org/2000/svg" viewBox="0 0 30 30"><defs><style>.cls-1{fill:#9c8866;}.cls-2{fill:none;stroke:#9c8866;stroke-miterlimit:10;stroke-width:2px;}</style></defs><title>icon_service</title><rect class="cls-1" x="0.12" y="11.43" width="6.12" height="9.17" rx="2.7"/><rect class="cls-1" x="23.88" y="11.43" width="6.12" height="9.17" rx="2.7"/><path class="cls-1" d="M4.21,15.11A12.08,12.08,0,0,1,7.32,5.45a10.43,10.43,0,0,1,15.41,0,12.1,12.1,0,0,1,3.1,9.66h1.94a14.13,14.13,0,0,0,.07-1.46C27.84,6.11,22.1,0,15,0S2.2,6.11,2.2,13.65c0,.49,0,1,.07,1.46Z"/><path class="cls-1" d="M15,6.8a5.86,5.86,0,0,1,5.53,3.71,4.32,4.32,0,0,0-.5,2V15.2l0,0H20l-.08,0A3.91,3.91,0,0,0,18,14.79H16.66a3.88,3.88,0,0,0-3.73,2.76,5.84,5.84,0,0,1-3-2.44V12.54a4.41,4.41,0,0,0-.46-2A5.85,5.85,0,0,1,15,6.8m0-2a7.8,7.8,0,0,0-7.73,6.13,2.38,2.38,0,0,1,.63,1.61v3.08A7.9,7.9,0,0,0,15,19.91h.34a1.78,1.78,0,0,1-.57-1.3,1.84,1.84,0,0,1,1.88-1.81H18a1.93,1.93,0,0,1,1.38.58,5.69,5.69,0,0,0,1.19-.21l.72-.26A8,8,0,0,0,22,15.73V12.54a2.4,2.4,0,0,1,.68-1.66A7.8,7.8,0,0,0,15,4.8Z"/><path class="cls-2" d="M19.88,19.45s-.11.48,1.65-.13a23.19,23.19,0,0,0,4.18-2.22"/><path class="cls-1" d="M19.66,24.14A4.18,4.18,0,0,1,23.85,28a.53.53,0,0,1-.53.53H6.69A.53.53,0,0,1,6.16,28a4.22,4.22,0,0,1,4.26-3.83h9.24m0-1.5H10.42C7.47,22.64,4.66,25,4.66,28a2,2,0,0,0,2,2H23.32a2,2,0,0,0,2-2,5.65,5.65,0,0,0-5.69-5.33Z"/><circle class="cls-1" cx="17.32" cy="17.37" r="4.13"/></svg>