<?xml version="1.0" encoding="utf-8"?>
<!-- Generator: Adobe Illustrator 24.1.2, SVG Export Plug-In . SVG Version: 6.00 Build 0)  -->
<svg version="1.1" id="圖層_1" xmlns="http://www.w3.org/2000/svg" xmlns:xlink="http://www.w3.org/1999/xlink" x="0px" y="0px"
	 viewBox="0 0 500 500" style="enable-background:new 0 0 500 500;" xml:space="preserve">
<style type="text/css">
	.st0{fill:#C62828;}
</style>
<path class="st0" d="M422.3,97.7c-56.7-51.5-70.4-51.5-76.3-51.5H183.3c-26.6,0-48.3,21.6-48.3,48.3v38.8H67.3
	c-26.6,0-48.3,21.6-48.3,48.3v211.8c0,26.6,21.6,48.3,48.3,48.3h248.5c26.6,0,48.3-21.6,48.3-48.3v-38.8h67.8
	c26.6,0,48.3-21.6,48.3-48.3V170.5C480,163.4,480,150.2,422.3,97.7z M436.9,169.7h-81.8c-4.5,0-8.3-3.7-8.3-8.3V88.2
	c8.6,5.4,25.7,18.4,48,38.6C416.1,146.1,430.3,161.3,436.9,169.7z M324,393.2c0,4.5-3.7,8.3-8.3,8.3H67.3c-4.5,0-8.3-3.7-8.3-8.3
	V181.4c0-4.5,3.7-8.3,8.3-8.3H135v133c0,26.6,21.6,48.3,48.3,48.3H324V393.2z M431.8,314.4H183.3c-4.5,0-8.3-3.7-8.3-8.3V94.4
	c0-4.5,3.7-8.3,8.3-8.3h123.6v75.3c0,26.6,21.6,48.3,48.3,48.3H440v96.5C440,310.7,436.3,314.4,431.8,314.4z"/>
</svg>
