<?xml version="1.0" encoding="utf-8"?>
<!-- Generator: Adobe Illustrator 22.1.0, SVG Export Plug-In . SVG Version: 6.00 Build 0)  -->
<svg version="1.1" id="圖層_1" xmlns="http://www.w3.org/2000/svg" xmlns:xlink="http://www.w3.org/1999/xlink" x="0px" y="0px"
	 viewBox="0 0 500 500" style="enable-background:new 0 0 500 500;" xml:space="preserve">
<style type="text/css">
	.st0{fill:#C1A678;}
</style>
<path class="st0" d="M376.7,165.4h-12.2v-46.2c0-36.8-30-66.8-66.8-66.8H123.3c-36.8,0-66.8,30-66.8,66.8v148.6
	c0,36.8,30,66.8,66.8,66.8h12.2v46.2c0,36.8,30,66.8,66.8,66.8h174.4c36.8,0,66.8-30,66.8-66.8V232.2
	C443.5,195.3,413.5,165.4,376.7,165.4z M91.5,267.8V119.2c0-17.5,14.3-31.8,31.8-31.8h174.4c17.5,0,31.8,14.3,31.8,31.8v148.6
	c0,17.5-14.3,31.8-31.8,31.8H123.3C105.8,299.6,91.5,285.4,91.5,267.8z M408.5,380.8c0,17.5-14.3,31.8-31.8,31.8H202.3
	c-17.5,0-31.8-14.3-31.8-31.8v-46.2h127.2c36.8,0,66.8-30,66.8-66.8v-67.5h12.2c17.5,0,31.8,14.3,31.8,31.8V380.8z"/>
</svg>
