<?xml version="1.0" encoding="utf-8"?>
<!-- Generator: Adobe Illustrator 22.1.0, SVG Export Plug-In . SVG Version: 6.00 Build 0)  -->
<svg version="1.1" id="圖層_1" xmlns="http://www.w3.org/2000/svg" xmlns:xlink="http://www.w3.org/1999/xlink" x="0px" y="0px"
	 viewBox="0 0 500 500" style="enable-background:new 0 0 500 500;" xml:space="preserve">
<style type="text/css">
	.st0{fill:#231815;}
</style>
<path class="st0" d="M279.1,250L404,125.2c8-8,8-21.1,0-29.1s-21.1-8-29.1,0L250,220.9L125.2,96c-8-8-21.1-8-29.1,0s-8,21.1,0,29.1
	L220.9,250L96,374.8c-8,8-8,21.1,0,29.1c4,4,9.3,6,14.6,6c5.3,0,10.5-2,14.6-6L250,279.1L374.8,404c4,4,9.3,6,14.6,6s10.5-2,14.6-6
	c8-8,8-21.1,0-29.1L279.1,250z"/>
</svg>
